<?xml version="1.0" encoding="UTF-8" standalone="no"?>
<svg
   version="1.0"
   width="790"
   height="612"
   viewBox="0 0 790 612"
   preserveAspectRatio="xMidYMid"
   id="svg194"
   sodipodi:docname="ds_logo_icon.svg"
   inkscape:version="1.4 (86a8ad7, 2024-10-11)"
   inkscape:export-filename="ds_logo_card_80.png"
   inkscape:export-xdpi="8"
   inkscape:export-ydpi="8"
   xmlns:inkscape="http://www.inkscape.org/namespaces/inkscape"
   xmlns:sodipodi="http://sodipodi.sourceforge.net/DTD/sodipodi-0.dtd"
   xmlns="http://www.w3.org/2000/svg"
   xmlns:svg="http://www.w3.org/2000/svg">
  <defs
     id="defs194">
    <inkscape:path-effect
       effect="fillet_chamfer"
       id="path-effect194"
       is_visible="true"
       lpeversion="1"
       nodesatellites_param="F,0,0,1,0,80.917471,0,1 @ F,0,0,1,0,79.962705,0,1 @ F,0,0,1,0,80.917471,0,1 @ F,0,0,1,0,82.349652,0,1"
       radius="0"
       unit="px"
       method="auto"
       mode="F"
       chamfer_steps="1"
       flexible="false"
       use_knot_distance="true"
       apply_no_radius="true"
       apply_with_radius="true"
       only_selected="false"
       hide_knots="false" />
  </defs>
  <sodipodi:namedview
     id="namedview194"
     pagecolor="#505050"
     bordercolor="#eeeeee"
     borderopacity="1"
     inkscape:showpageshadow="0"
     inkscape:pageopacity="0"
     inkscape:pagecheckerboard="0"
     inkscape:deskcolor="#505050"
     inkscape:zoom="0.41894531"
     inkscape:cx="513.19348"
     inkscape:cy="509.61306"
     inkscape:window-width="1366"
     inkscape:window-height="697"
     inkscape:window-x="-8"
     inkscape:window-y="-8"
     inkscape:window-maximized="1"
     inkscape:current-layer="svg194" />
  <path
     style="fill:#000000;fill-opacity:1;stroke:#000099;stroke-width:0"
     id="rect194"
     width="928.52203"
     height="584.80188"
     x="45.351978"
     y="66.834488"
     ry="0"
     inkscape:highlight-color="#000000"
     inkscape:label="rect194"
     inkscape:path-effect="#path-effect194"
     sodipodi:type="rect"
     d="m 126.26945,66.834488 h 767.64186 a 79.962705,79.962705 45 0 1 79.9627,79.962702 V 570.7189 a 80.917471,80.917471 135 0 1 -80.91747,80.91747 H 127.70163 A 82.349652,82.349652 45 0 1 45.351978,569.28672 V 147.75196 A 80.917471,80.917471 135 0 1 126.26945,66.834488 Z"
     inkscape:export-filename="ds_logo_card.png"
     inkscape:export-xdpi="96"
     inkscape:export-ydpi="96"
     transform="matrix(0.82519278,0,0,1.0204082,-23.102449,-56.263737)" />
  <g
     fill="#821b12"
     id="g18"
     transform="translate(-137.0303,-54.899767)">
    <path
       d="m 456.75,603.9 c -1.1,-0.25 -5.25,-1.25 -9.25,-2.2 -7,-1.65 -17.55,-4.75 -22.75,-6.7 -16.45,-6.05 -29.25,-11.95 -42.25,-19.5 -7.45,-4.3 -18.8,-11.8 -24.05,-15.85 -2.1,-1.6 -4.55,-3.45 -5.45,-4.15 -0.95,-0.7 -2.5,-1.95 -3.5,-2.75 -0.95,-0.85 -2.75,-2.35 -4,-3.35 -5.2,-4.15 -5.45,-4.6 -2.85,-5.35 1.8,-0.5 15.75,-5.4 24.1,-8.45 10.65,-3.9 33.8,-13.4 44.55,-18.4 2,-0.9 5.15,-2.3 7,-3.1 1.9,-0.85 4.15,-1.9 4.95,-2.3 0.85,-0.45 1.65,-0.8 1.8,-0.8 0.3,0 12.85,-6 26.2,-12.5 12.5,-6.15 36.8,-18.8 45,-23.5 2.75,-1.6 9.4,-5.3 14.75,-8.3 5.35,-3 10.1,-5.65 10.6,-5.95 0.45,-0.25 2.9,-1.75 5.5,-3.25 12.15,-7.1 45.05,-27.05 51.5,-31.25 2.15,-1.35 5.3,-3.4 7,-4.45 1.75,-1.1 5.3,-3.35 7.9,-5 5.8,-3.75 50.8,-33.75 56,-37.35 8.95,-6.2 15.8,-11 21,-14.7 23.2,-16.55 27.4,-19.6 35,-25.3 4.25,-3.15 12.15,-9.05 17.5,-13.05 11.05,-8.25 19.3,-14.5 25.4,-19.25 2.3,-1.8 4.25,-3.15 4.35,-3.05 0.35,0.3 2.2,12.05 3,18.9 2.25,19.8 2,44.6 -0.75,65.7 -2.45,19.1 -8.4,41.9 -15.5,59.8 -4.5,11.2 -12.15,27 -13.15,27 -0.3,0 -4.3,-0.35 -8.85,-0.75 -47.4,-4.25 -82.8,-4.25 -116,0.05 -27.3,3.5 -58.2,12.15 -63.15,17.6 -0.8,0.9 -0.8,1 0.25,2.35 1.4,1.8 3.35,2.55 7.65,3 1.95,0.2 3.75,0.6 4.1,0.85 0.3,0.25 2.6,0.45 5.1,0.45 2.5,0.05 4.7,0.25 4.85,0.55 0.2,0.3 1.55,0.35 3.55,0.15 2.25,-0.25 3.4,-0.15 3.95,0.3 0.5,0.4 1.8,0.5 4.45,0.25 2.1,-0.2 4.1,-0.15 4.6,0.15 1,0.5 19.05,1.65 26.2,1.65 2.45,0 4.6,0.25 4.75,0.5 0.2,0.3 1.35,0.35 2.8,0.15 1.45,-0.2 2.95,-0.15 3.6,0.15 0.55,0.25 4,0.9 7.55,1.35 10.6,1.4 19.3,3.55 21.8,5.4 2.45,1.85 2.6,5.55 0.4,8.05 -2.75,3.15 -8.85,5.4 -26.7,9.85 -30,7.45 -46.15,12.35 -64.75,19.7 -29.25,11.5 -53.45,25.3 -75.65,43.1 -12.65,10.15 -15.8,12.8 -15.8,13.55 -0.05,0.7 -1.45,0.7 -4.3,0 z"
       id="path10" />
    <path
       d="m 302.15,500.1 c -0.5,-0.35 -8.3,-11.35 -10.6,-14.95 -3.15,-5 -9.5,-16.45 -11.7,-21.15 -21.45,-45.35 -28.6,-92.7 -21.8,-144.5 1.55,-11.9 1.3,-10.95 2.85,-10.9 0.75,0 6.3,-2 12.35,-4.45 26.65,-10.9 47.75,-16.25 76.75,-19.5 9.95,-1.1 44.25,-1.25 54.25,-0.25 30.5,3.1 59,10.1 83.95,20.6 11.35,4.8 22.45,11.95 25.85,16.65 1.25,1.75 1.45,2.45 1.45,5.4 0,4.1 -1.1,5.75 -5.05,7.4 -4.6,2 -19.7,4.35 -35.45,5.55 -26.45,1.95 -43.05,3.8 -47.6,5.2 -3.05,0.9 -6.9,3.15 -6.9,4 0,1.3 5.35,4.8 7.4,4.8 0.6,0 1.15,0.2 1.3,0.45 0.7,1.1 23.5,5.55 28.6,5.55 1.35,0 2.7,0.2 3,0.45 0.5,0.5 5.05,1.05 19.95,2.55 19.7,1.95 41.85,3.4 79.6,5.2 7.2,0.35 13.3,0.8 13.5,1 0.2,0.2 0.05,0.6 -0.35,0.85 -0.4,0.25 -6.05,3.85 -12.5,8 -6.45,4.15 -13.3,8.5 -15.25,9.7 -1.9,1.15 -6.05,3.75 -9.15,5.7 -3.1,1.95 -5.75,3.55 -5.85,3.55 -0.1,0 -1.95,1.1 -4.1,2.4 -3.7,2.35 -16.4,9.9 -23.9,14.25 -1.9,1.1 -5.05,2.95 -7,4.1 -3.2,1.9 -5.5,3.2 -12.25,6.85 -1.25,0.7 -5.95,3.25 -10.5,5.75 -15.35,8.45 -18.7,10.2 -36.25,18.9 -26.55,13.15 -51.2,24 -76.25,33.5 -12.5,4.75 -27.75,9.75 -46.5,15.2 -5.7,1.65 -11.05,2.65 -11.85,2.15 z"
       id="path11" />
    <path
       d="m 587.1,242.9 c -0.35,-0.35 -0.6,-1.35 -0.6,-2.25 0,-1.6 0.1,-1.65 1.9,-1.65 2.35,0 3.1,0.7 3.1,2.85 0,1.6 -0.1,1.65 -1.9,1.65 -1.05,0 -2.15,-0.25 -2.5,-0.6 z"
       id="path12" />
    <path
       d="m 549.5,230 v -2 h 2.25 2.25 v 2 2 h -2.25 -2.25 z"
       id="path13" />
    <path
       d="m 651.5,230 v -2 h 2.25 2.25 v 2 2 h -2.25 -2.25 z"
       id="path14" />
    <path
       d="m 558,229.1 v -1.85 l 5.65,-0.9 c 7.6,-1.2 7.35,-1.25 7.35,1.15 0,1.8 -0.1,1.95 -1.6,2.2 -0.9,0.15 -3.15,0.5 -4.95,0.8 -1.8,0.25 -4,0.5 -4.85,0.5 -1.5,0 -1.6,-0.1 -1.6,-1.9 z"
       id="path15" />
    <path
       d="m 646,229 c 0,-1.95 0.05,-2 1.75,-2 1.7,0 1.75,0.05 1.75,2 0,1.95 -0.05,2 -1.75,2 -1.7,0 -1.75,-0.05 -1.75,-2 z"
       id="path16" />
    <path
       d="m 635.5,228.5 c 0,-0.25 -0.8,-0.5 -1.8,-0.5 -1.75,0 -1.75,-0.05 -1.6,-1.85 0.15,-1.8 0.25,-1.9 2.05,-2.05 1.05,-0.1 1.85,0.05 1.85,0.35 0,0.3 0.9,0.55 2,0.55 h 2 v 2 2 h -2.25 c -1.25,0 -2.25,-0.2 -2.25,-0.5 z"
       id="path17" />
    <path
       d="m 571.5,226.5 v -2 h 2.5 2.5 v 2 2 h -2.5 -2.5 z"
       id="path18" />
  </g>
  <g
     fill="#b83326"
     id="g81"
     transform="translate(-137.0303,-54.899767)">
    <path
       d="m 486.75,608.25 c -7.05,-0.6 -19.55,-2.3 -24,-3.25 -7.15,-1.5 -7.75,-1.7 -7.75,-2.35 0,-0.5 0.25,-0.55 0.95,-0.15 1.6,0.85 2.15,0.6 5.55,-2.3 8.05,-6.95 23.45,-18.95 28.8,-22.6 12.3,-8.2 28.9,-18.1 30.4,-18.1 0.2,0 0.3,0.6 0.2,1.4 -0.15,1.2 -0.35,1.35 -2.25,1.5 -1.75,0.15 -2.15,0.35 -2.15,1.15 0,0.55 -0.5,1.15 -1.1,1.4 -0.65,0.25 -2.55,1.3 -4.25,2.35 -1.7,1.1 -4.5,2.85 -6.25,3.9 -7.8,4.85 -15.05,9.75 -19.65,13.25 -6.4,4.85 -19.85,15.7 -20.65,16.7 -0.7,0.8 -0.95,0.75 6.8,1.9 2.25,0.3 4.1,0.7 4.1,0.9 0,0.15 1.9,0.25 4.2,0.15 3.45,-0.15 4.3,0 5.05,0.7 0.65,0.7 1.05,0.75 1.75,0.3 1.3,-0.8 13.35,-0.2 14.25,0.75 0.85,0.8 6.6,0.9 6.85,0.1 0.25,-0.75 13.5,-1.6 15.15,-0.95 0.8,0.3 1.25,0.25 1.4,-0.15 0.1,-0.4 2.25,-0.7 6.2,-0.9 3.3,-0.2 6.45,-0.6 6.95,-0.85 0.5,-0.3 3.2,-0.75 5.95,-1.05 2.75,-0.25 7.6,-1.05 10.75,-1.8 9.75,-2.2 12.2,-2.8 13.75,-3.25 0.85,-0.25 3.4,-1 5.75,-1.65 4.9,-1.4 13.35,-4.25 14.65,-4.9 0.45,-0.25 1.95,-0.8 3.25,-1.25 1.3,-0.45 3.55,-1.35 5,-2 1.45,-0.65 2.8,-1.2 2.95,-1.2 0.2,0 1.35,-0.5 2.6,-1.05 7.45,-3.5 13.15,-6.25 15.55,-7.5 1.5,-0.85 4,-2.1 5.5,-2.85 1.5,-0.75 2.85,-1.55 2.9,-1.75 0.1,-0.2 1.25,-0.9 2.55,-1.6 1.3,-0.65 4.8,-2.75 7.7,-4.7 2.95,-1.95 5.45,-3.55 5.6,-3.55 0.15,0 1.25,-0.8 2.55,-1.75 1.25,-0.95 2.8,-1.75 3.5,-1.75 0.85,0 1.2,-0.3 1.2,-1 0,-0.55 0.2,-1 0.45,-1 0.25,0 0.8,-0.3 1.15,-0.6 0.35,-0.35 2.55,-2.1 4.9,-3.85 4.2,-3.2 8.9,-7.05 11.75,-9.65 0.85,-0.8 1.65,-1.4 1.8,-1.4 0.4,0 19.4,-19.1 22.55,-22.6 4.45,-5.05 11.6,-14 13.5,-16.9 0.45,-0.7 1.5,-2.05 2.35,-3 0.85,-0.95 1.55,-2 1.55,-2.35 0,-0.3 0.5,-0.65 1.15,-0.75 0.8,-0.1 1.15,-0.55 1.25,-1.5 0.1,-0.8 0.35,-1.4 0.6,-1.4 0.2,0 0.55,-0.6 0.7,-1.3 0.2,-0.7 0.8,-1.75 1.3,-2.35 0.55,-0.55 1,-1.35 1,-1.7 0,-0.35 0.2,-0.65 0.45,-0.65 0.25,0 0.55,-0.5 0.65,-1.1 0.1,-0.65 0.75,-1.45 1.55,-1.8 1,-0.5 1.35,-1 1.35,-2 0,-0.8 0.4,-1.7 1,-2.1 0.55,-0.4 1,-1.25 1,-1.85 0,-0.65 0.25,-1.15 0.5,-1.15 0.3,0 0.5,-0.3 0.5,-0.7 0,-0.5 -1.3,-0.85 -4.6,-1.2 -6.5,-0.8 -15.15,-1.5 -22,-1.9 -5.8,-0.3 -5.9,-0.3 -5.9,-1.5 0,-0.8 0.3,-1.2 0.9,-1.2 1.3,0 19.3,1.4 28.35,2.2 4.4,0.4 8.15,0.6 8.35,0.5 2.4,-1.5 -7.75,15.55 -17.15,28.85 -23.1,32.6 -57.2,61.55 -94.8,80.4 -3.9,1.95 -7.2,3.55 -7.3,3.55 -0.15,0 -2.15,0.85 -4.45,1.95 -9.05,4.2 -24.45,9.45 -37.65,12.8 -25.5,6.5 -54.65,9.05 -79,7 z"
       id="path19" />
    <path
       d="m 449.25,602.15 c -5.5,-1.25 -8.75,-2.35 -8.75,-2.95 0,-0.6 0.2,-0.6 1,-0.2 0.55,0.3 1,0.4 1,0.2 0,-0.15 0.35,-0.05 0.75,0.3 0.4,0.3 0.95,0.45 1.25,0.25 0.3,-0.15 1.2,0 2.05,0.45 0.8,0.4 1.8,0.65 2.2,0.5 0.35,-0.15 0.8,-0.05 0.95,0.25 0.2,0.3 0.65,0.4 1.05,0.2 0.45,-0.15 0.75,0.05 0.75,0.55 0,0.8 -0.4,0.9 -2.25,0.45 z"
       id="path20" />
    <path
       d="m 430.4,596.9 c -0.8,-0.25 -1.4,-0.85 -1.4,-1.3 0,-0.7 0.1,-0.7 0.45,-0.15 0.25,0.35 0.65,0.55 0.95,0.35 0.75,-0.45 2.1,0.2 2.1,1 0,0.8 -0.25,0.8 -2.1,0.1 z"
       id="path21" />
    <path
       d="m 416.4,591.9 c -0.8,-0.25 -1.4,-0.85 -1.4,-1.3 0,-0.7 0.1,-0.7 0.45,-0.15 0.25,0.35 0.65,0.55 0.95,0.35 0.25,-0.15 1,0.15 1.6,0.7 1.25,1.1 0.65,1.25 -1.6,0.4 z"
       id="path22" />
    <path
       d="m 391,580.05 -1.25,-1 1.2,0.2 c 1.45,0.25 1.7,0.5 1.45,1.25 -0.1,0.4 -0.6,0.2 -1.4,-0.45 z"
       id="path23" />
    <path
       d="m 387.5,578.25 c -0.35,-0.4 -0.9,-0.75 -1.25,-0.75 -0.35,0 -0.9,-0.35 -1.25,-0.8 -0.55,-0.6 -0.55,-0.75 0.05,-0.6 0.4,0.1 0.85,0.3 1,0.55 0.15,0.2 0.75,0.45 1.35,0.6 1.4,0.25 2.1,0.7 2.1,1.3 0,0.7 -1.3,0.55 -2,-0.3 z"
       id="path24" />
    <path
       d="m 374.65,570.85 c -1.45,-0.9 -2.6,-1.95 -2.65,-2.35 0,-0.65 0.05,-0.65 0.5,0 0.25,0.4 0.5,0.55 0.5,0.25 0,-0.25 0.3,-0.15 0.65,0.25 0.35,0.4 0.95,0.8 1.35,0.9 0.4,0.1 0.95,0.5 1.15,0.9 0.25,0.4 0.6,0.6 0.85,0.45 0.2,-0.15 0.5,0.1 0.7,0.5 0.4,1.05 -0.1,0.9 -3.05,-0.9 z"
       id="path25" />
    <path
       d="m 369.4,567.4 c -1.85,-1.05 -2.45,-1.9 -1.4,-1.9 0.3,0 0.5,0.25 0.5,0.55 0,0.25 0.15,0.4 0.4,0.3 0.2,-0.1 0.9,0.3 1.6,0.95 1.5,1.45 1.3,1.5 -1.1,0.1 z"
       id="path26" />
    <path
       d="m 365.65,564.75 c -0.45,-1.25 0.2,-1.45 0.85,-0.3 0.35,0.75 0.35,1.05 0,1.05 -0.3,0 -0.65,-0.35 -0.85,-0.75 z"
       id="path27" />
    <path
       d="m 363.4,563.3 c -0.5,-0.35 -0.9,-0.95 -0.9,-1.35 0,-0.55 0.1,-0.55 0.5,0.05 0.25,0.4 0.5,0.55 0.5,0.35 0,-0.25 0.35,-0.1 0.75,0.35 1.35,1.35 0.7,1.8 -0.85,0.6 z"
       id="path28" />
    <path
       d="m 360.15,560.9 c -2.25,-1.6 -2.15,-2.75 0.1,-1.3 0.95,0.65 1.75,1.45 1.75,1.8 0,0.8 0,0.8 -1.85,-0.5 z"
       id="path29" />
    <path
       d="m 527,556.85 c 0,-0.35 0.8,-1.05 1.75,-1.5 l 1.75,-0.85 v 1.5 c 0,1.4 -0.15,1.5 -1.75,1.5 -1.1,0 -1.75,-0.25 -1.75,-0.65 z"
       id="path30" />
    <path
       d="m 351.35,554.2 c -1,-0.65 -1.85,-1.6 -1.85,-2 0,-0.65 0.25,-0.6 1.4,0.25 3.15,2.2 3.55,3.85 0.45,1.75 z"
       id="path31" />
    <path
       d="m 341.65,546.25 c -0.85,-0.95 -0.8,-1.6 0.15,-1.95 0.45,-0.15 0.8,-0.3 0.85,-0.3 0.05,0 0.15,0.7 0.2,1.5 0.1,1.65 -0.25,1.85 -1.2,0.75 z"
       id="path32" />
    <path
       d="m 551,546.3 c 0,-0.35 0.95,-1.05 2.15,-1.5 2.75,-1.05 2.85,-1 2.85,0.4 0,0.8 -0.35,1.3 -1.1,1.5 -2,0.5 -3.9,0.35 -3.9,-0.4 z"
       id="path33" />
    <path
       d="m 562,542.3 c 0,-0.75 2.1,-1.7 6.6,-3 1.6,-0.45 3.2,-0.95 3.65,-1.1 0.55,-0.25 0.75,0.05 0.75,0.95 0,1.15 -0.4,1.4 -3.9,2.55 -4.3,1.45 -7.1,1.7 -7.1,0.6 z"
       id="path34" />
    <path
       d="m 574,538.25 c 0,-0.5 1.85,-1.3 5.65,-2.5 3.1,-0.95 5.8,-1.75 6,-1.75 0.2,0 0.35,0.55 0.35,1.15 0,0.95 -0.4,1.3 -2.1,1.85 -1.2,0.35 -3.15,0.95 -4.35,1.3 -3,0.95 -5.55,0.9 -5.55,-0.05 z"
       id="path35" />
    <path
       d="m 589.1,533.65 c 0.1,-0.5 1,-1.05 2.4,-1.4 5.4,-1.4 5,-1.35 5,-0.1 0,0.95 -0.4,1.3 -1.95,1.75 -1.05,0.35 -2.75,0.6 -3.75,0.6 -1.5,0 -1.85,-0.15 -1.7,-0.85 z"
       id="path36" />
    <path
       d="m 597,531.65 c 0,-0.75 0.65,-1.1 3.4,-1.8 1.85,-0.45 3.85,-0.95 4.5,-1.15 0.9,-0.25 1.1,-0.1 1.1,0.9 0,1 -0.35,1.35 -2,1.85 -1.15,0.35 -3.15,0.75 -4.5,0.9 -2.25,0.25 -2.5,0.2 -2.5,-0.7 z"
       id="path37" />
    <path
       d="m 606.5,529.3 c 0,-0.85 0.25,-1.05 2.15,-1.5 1.2,-0.3 1.35,-0.2 1.35,0.95 0,1.1 -0.2,1.25 -1.75,1.25 -1.2,0 -1.75,-0.25 -1.75,-0.7 z"
       id="path38" />
    <path
       d="m 610.6,528.15 c 0.15,-0.8 1.9,-1.45 6.3,-2.3 1.45,-0.3 1.6,-0.2 1.6,0.85 0,0.95 -0.4,1.2 -2.55,1.7 -3.75,0.9 -5.55,0.8 -5.35,-0.25 z"
       id="path39" />
    <path
       d="m 620.6,525.7 c 0.1,-0.55 1.25,-1.15 3.4,-1.75 4.15,-1.15 4,-1.15 4,0.25 0,1 -0.35,1.25 -2.2,1.75 -3.35,0.85 -5.4,0.75 -5.2,-0.25 z"
       id="path40" />
    <path
       d="m 632.6,522.2 c 0.1,-0.45 1.05,-1.15 2.15,-1.55 3.8,-1.35 3.75,-1.35 3.75,0 0,0.95 -0.35,1.4 -1.55,1.8 -2.45,0.85 -4.55,0.7 -4.35,-0.25 z"
       id="path41" />
    <path
       d="m 641.8,511.05 c -0.9,-1.4 -11.15,-3.95 -21.55,-5.3 -3.55,-0.45 -6.85,-0.95 -7.25,-1.1 -0.4,-0.15 -1.95,-0.25 -3.35,-0.15 -1.45,0.05 -2.85,-0.05 -3.1,-0.25 -0.3,-0.15 -2.8,-0.4 -5.65,-0.5 -2.85,-0.1 -7.45,-0.35 -10.25,-0.55 -4.95,-0.3 -5.15,-0.35 -5.15,-1.45 0,-1.05 0.3,-1.2 2.75,-1.5 2.8,-0.35 21.95,0.8 29.8,1.8 7.35,0.9 15.95,2.55 15.95,3 0,0.25 0.65,0.45 1.45,0.45 2.05,0 4.55,1 4.55,1.8 0,0.4 0.5,0.7 1.25,0.7 1.1,0 1.25,0.2 1.25,1.75 0,1.75 -0.2,2.15 -0.7,1.3 z"
       id="path42" />
    <path
       d="m 581.15,502.65 c -3.1,-0.2 -3.15,-0.2 -3.15,-1.65 v -1.5 h 3.5 3.5 v 1.75 c 0,0.95 -0.15,1.7 -0.35,1.65 -0.25,-0.05 -1.8,-0.15 -3.5,-0.25 z"
       id="path43" />
    <path
       d="m 575.3,502.15 c -0.2,-0.2 -1.35,-0.3 -2.55,-0.2 -2.1,0.1 -2.25,0.05 -2.25,-1.1 0,-1.45 0.8,-1.85 3.55,-1.85 1.9,0 1.95,0.05 1.95,1.75 0,1.8 -0.1,2 -0.7,1.4 z"
       id="path44" />
    <path
       d="m 566.35,501.65 c -0.2,-0.15 -1.8,-0.25 -3.6,-0.2 -1.8,0.05 -3.45,0 -3.75,-0.2 -0.25,-0.15 -2.55,-0.4 -5.1,-0.55 -2.5,-0.15 -4.8,-0.4 -5.1,-0.55 -0.3,-0.2 -1.25,-0.3 -2.1,-0.2 -0.9,0.05 -1.75,-0.15 -1.95,-0.4 -0.15,-0.3 -0.55,-0.45 -0.8,-0.25 -0.9,0.55 -5.4,-1.35 -6.7,-2.85 -0.7,-0.85 -1.25,-1.75 -1.25,-2 0,-0.7 2.85,-0.55 3.6,0.2 0.35,0.35 1.95,0.95 3.55,1.35 1.55,0.35 2.85,0.85 2.85,1.1 0,0.2 1.75,0.4 3.9,0.4 2.1,0 7.15,0.25 11.25,0.6 l 7.35,0.55 v 1.7 c 0,1.25 -0.2,1.65 -0.9,1.65 -0.5,0 -1.1,-0.15 -1.25,-0.35 z"
       id="path45" />
    <path
       d="m 301.6,499.35 c -1.15,-1.2 -1.6,-2.55 -0.5,-1.45 0.35,0.35 1.45,0.6 2.5,0.6 1.95,0 2.7,1.1 1.1,1.7 -1.35,0.5 -2,0.35 -3.1,-0.85 z"
       id="path46" />
    <path
       d="m 323,494.35 c 0,-0.8 2.05,-1.85 3.5,-1.85 1.6,0 1.15,1.25 -0.65,1.9 -2.15,0.75 -2.85,0.75 -2.85,-0.05 z"
       id="path47" />
    <path
       d="m 293.5,488 c -0.55,-1.1 -0.85,-2 -0.6,-2 0.25,0 0.9,0.9 1.5,2 0.55,1.1 0.85,2 0.6,2 -0.25,0 -0.95,-0.9 -1.5,-2 z"
       id="path48" />
    <path
       d="m 471,488.75 c 0,-0.35 6.05,-3.35 6.3,-3.1 0.2,0.2 -5.4,3.35 -6,3.35 -0.15,0 -0.3,-0.1 -0.3,-0.25 z"
       id="path49" />
    <path
       d="m 554.5,483.75 c 0,-1 0.65,-1.25 10.25,-3.65 11.8,-2.95 10.75,-2.8 10.75,-1.4 0,1.3 0.7,1.05 -11.55,4.05 -8.15,1.95 -9.45,2.1 -9.45,1 z"
       id="path50" />
    <path
       d="m 288.55,480.05 c -1.15,-1.55 -1.3,-2.05 -0.65,-2.05 0.25,0 0.8,0.8 1.25,1.75 1,2.15 0.75,2.25 -0.6,0.3 z"
       id="path51" />
    <path
       d="m 576.5,478.05 c 0,-0.65 0.45,-1 1.65,-1.2 17.65,-3.1 21.4,-3.6 37.35,-5.3 2.35,-0.25 8.1,-0.6 12.75,-0.75 4.7,-0.15 10,-0.45 11.9,-0.6 3.3,-0.25 3.35,-0.25 3.35,0.95 v 1.25 l -8.35,0.3 c -15.6,0.6 -31.15,2.05 -41.4,3.9 -6.9,1.2 -14.65,2.35 -16.1,2.4 -0.8,0 -1.15,-0.3 -1.15,-0.95 z"
       id="path52" />
    <path
       d="m 672.4,472.65 c -3.2,-0.2 -3.4,-0.25 -3.4,-1.4 0,-1.15 0,-1.15 5.15,-0.95 13.05,0.55 14.35,0.7 14.35,1.75 0,0.9 -0.4,0.95 -6.35,0.85 -3.55,-0.05 -7.9,-0.15 -9.75,-0.25 z"
       id="path53" />
    <path
       d="m 743.95,431.55 c 0.35,-0.25 0.5,-0.7 0.35,-1 -0.2,-0.3 -0.1,-0.55 0.15,-0.55 0.3,0 0.55,-0.35 0.55,-0.75 0,-0.4 0.25,-0.75 0.5,-0.75 0.55,0 0.6,0.75 0.2,2.4 -0.2,0.7 -0.7,1.1 -1.4,1.1 -0.8,0 -0.9,-0.1 -0.35,-0.45 z"
       id="path54" />
    <path
       d="m 572,430.5 c 0.4,-0.3 1.2,-0.8 1.75,-1.1 1,-0.55 1,-0.55 0.05,0.55 -0.55,0.55 -1.3,1.05 -1.75,1.05 -0.7,0 -0.7,-0.1 -0.05,-0.5 z"
       id="path55" />
    <path
       d="m 590.75,418.7 c 1.9,-1.45 3.05,-1.8 1.55,-0.5 -0.8,0.7 -1.7,1.3 -2,1.3 -0.3,0 -0.1,-0.4 0.45,-0.8 z"
       id="path56" />
    <path
       d="m 499.2,414.7 c 0.15,-0.45 0.3,-0.85 0.3,-1 0,-0.2 3.8,-2.2 4.25,-2.2 0.15,0 0.25,0.35 0.25,0.75 0,0.4 -1,1.3 -2.15,2 -2.55,1.45 -3.05,1.55 -2.65,0.45 z"
       id="path57" />
    <path
       d="m 504.5,411.6 c 0,-1 3.65,-3.35 4.5,-2.85 0.95,0.55 0.5,1.1 -2,2.45 -2.3,1.25 -2.5,1.3 -2.5,0.4 z"
       id="path58" />
    <path
       d="m 518,403.6 c 0,-0.65 0.8,-1.4 2.55,-2.3 2.55,-1.3 3.95,-1.65 3.95,-0.9 0,0.2 -0.75,0.8 -1.6,1.3 -0.9,0.5 -2.4,1.4 -3.25,1.9 -1.65,0.95 -1.65,0.95 -1.65,0 z"
       id="path59" />
    <path
       d="m 751.25,402.5 c -0.15,-0.25 -0.05,-0.5 0.2,-0.5 0.3,0 0.55,-0.55 0.55,-1.25 0,-0.7 0.25,-1.25 0.5,-1.25 0.55,0 0.6,0.75 0.2,2.4 -0.35,1.15 -0.95,1.45 -1.45,0.6 z"
       id="path60" />
    <path
       d="m 627.05,394.8 c 0.75,-0.75 3.95,-2.7 3.95,-2.4 0,0.4 -3.15,2.6 -3.75,2.6 -0.2,0 -0.3,-0.1 -0.2,-0.2 z"
       id="path61" />
    <path
       d="m 537.5,391.55 c 0,-0.95 1.75,-1.95 2.35,-1.35 0.2,0.15 0.85,-0.05 1.5,-0.45 0.65,-0.45 1.15,-0.6 1.15,-0.4 -0.05,0.4 -4.1,3.15 -4.7,3.15 -0.15,0 -0.3,-0.45 -0.3,-0.95 z"
       id="path62" />
    <path
       d="m 542.85,388.4 c -0.2,-0.65 2.65,-2.9 3.6,-2.9 1.15,0 0.45,1.45 -1.15,2.45 -1.95,1.2 -2.15,1.25 -2.45,0.45 z"
       id="path63" />
    <path
       d="m 257.35,385.5 c -0.25,-1.75 -1.3,-14.65 -1.35,-16.65 0,-0.25 0.25,-0.25 0.5,-0.1 0.3,0.15 0.5,2.35 0.5,4.8 0,2.5 0.25,6.05 0.55,7.95 0.3,1.9 0.45,4.1 0.35,4.85 -0.15,1.15 -0.25,1 -0.55,-0.85 z"
       id="path64" />
    <path
       d="m 547.5,385.7 c 0,-0.4 0.25,-0.6 0.5,-0.45 0.3,0.15 0.5,0 0.5,-0.4 0,-0.75 2.05,-2.35 3,-2.35 0.9,0 0.55,1.25 -0.6,2 -2.7,1.75 -3.4,2 -3.4,1.2 z"
       id="path65" />
    <path
       d="m 754,382 c 0,-0.25 0.25,-0.5 0.5,-0.5 0.3,0 0.5,-0.65 0.5,-1.5 0,-0.8 0.25,-1.5 0.55,-1.5 0.4,0 0.45,0.55 0.25,1.55 -0.15,0.85 -0.3,1.75 -0.3,2 0,0.25 -0.35,0.45 -0.75,0.45 -0.4,0 -0.75,-0.2 -0.75,-0.5 z"
       id="path66" />
    <path
       d="m 558,379.05 c 0,-0.85 2.3,-3.05 3.2,-3.05 0.15,0 1.1,-0.55 2.1,-1.25 2.05,-1.4 2.7,-1.55 2.7,-0.6 0,0.3 -0.85,1.15 -1.9,1.85 -1,0.65 -2.8,1.85 -3.95,2.65 -2,1.3 -2.15,1.35 -2.15,0.4 z"
       id="path67" />
    <path
       d="m 566.5,373.55 c 0,-1.2 1.8,-2.55 3.4,-2.55 0.65,0 1.05,-0.2 0.9,-0.4 -0.15,-0.25 -4.5,-0.6 -9.65,-0.8 -5.15,-0.15 -12.75,-0.55 -16.9,-0.8 -4.1,-0.3 -13.7,-0.85 -21.25,-1.25 -25.3,-1.4 -60.75,-4.5 -63.5,-5.6 -0.4,-0.15 -1.1,-0.25 -1.55,-0.2 -2.25,0.25 -26.3,-4.3 -29.45,-5.6 -0.7,-0.25 -1.65,-0.6 -2.15,-0.65 -1.7,-0.35 -5.9,-2.85 -6.85,-4.05 -1.95,-2.5 -1,-4.6 2.9,-6.6 4.15,-2.1 10.7,-3.15 30.75,-4.9 5.7,-0.45 10.35,-1.05 10.35,-1.25 0,-0.25 0.55,-0.3 1.2,-0.1 2.6,0.65 26.85,-1.85 36.85,-3.8 8.7,-1.65 12.45,-4.1 12.45,-7.95 0,-6.65 -16.45,-17.15 -40.05,-25.55 -21.4,-7.65 -46.2,-13.05 -71.2,-15.6 -9.85,-1 -41.35,-0.85 -51.25,0.25 -27.1,3.05 -48,8.1 -72.25,17.6 -7.75,3.05 -18.8,7.65 -19.2,8.05 -0.1,0.1 -0.45,2.3 -0.8,4.95 -0.3,2.6 -0.75,4.95 -1,5.15 -0.2,0.2 -0.25,-0.55 -0.1,-1.65 0.2,-1.1 0.45,-3.45 0.6,-5.25 0.85,-9.3 5.55,-28.4 10.65,-43.5 6.6,-19.4 18.9,-43.9 30.1,-59.75 2.75,-4 7.8,-10.75 11.5,-15.5 10.3,-13.3 30.05,-32.3 45.6,-43.9 32.95,-24.55 72.4,-40.95 112.65,-46.8 15.25,-2.25 22.85,-2.65 42.25,-2.4 19.95,0.25 28.65,1.1 44.75,4.3 41.45,8.25 82.95,28.9 115.25,57.35 23.8,21 45.25,48.6 59.5,76.8 2.2,4.3 4,8.15 4,8.5 0,0.8 -3,3.8 -7.5,7.4 -1.8,1.4 -4.8,3.85 -6.7,5.4 -4.05,3.35 -2.8,2.35 -23.65,18.65 -17.6,13.75 -43.4,33.2 -55.4,41.7 -1.95,1.35 -7.7,5.55 -12.2,8.8 -1.65,1.25 -6.15,4.4 -19.65,13.7 -6.55,4.5 -22.55,15.2 -30.4,20.3 -13.9,9.05 -13,8.55 -13,7.5 z m -32.8,-9.45 c -0.3,-0.2 -0.65,-0.75 -0.85,-1.2 -0.15,-0.5 -0.75,-0.9 -1.3,-0.9 -0.5,0 -1.05,-0.3 -1.2,-0.7 -0.15,-0.35 -1.4,-0.8 -2.9,-0.95 -1.6,-0.2 -2.8,-0.65 -3.05,-1.1 -0.25,-0.4 -0.8,-0.75 -1.15,-0.75 -0.4,0 -0.75,-0.35 -0.75,-0.75 0,-0.6 -0.7,-0.75 -3.2,-0.75 -3.5,0 -3.8,-0.3 -3.8,-3.8 0,-1.65 -0.8,-2.2 -3.35,-2.2 -0.7,0 -1.15,-0.3 -1.15,-0.8 0,-0.4 -0.55,-1.5 -1.2,-2.35 -0.65,-0.9 -1.3,-2.05 -1.4,-2.6 -0.1,-0.8 -0.7,-1.05 -2.55,-1.3 -2.55,-0.25 -3.35,-0.95 -3.35,-2.8 0,-0.8 -0.3,-1.15 -1,-1.15 -0.6,0 -1,-0.35 -1,-0.8 0,-0.7 -0.35,-0.8 -2.35,-0.5 -8.9,1.25 -22.9,2.75 -31.15,3.3 -30.65,1.95 -42.9,3.7 -45.05,6.35 -0.55,0.65 -0.45,0.95 0.8,1.95 2.05,1.65 6.05,2.85 16,4.9 8.8,1.75 16.55,2.95 24.75,3.85 2.6,0.25 6.35,0.7 8.25,0.95 1.95,0.3 6.45,0.75 10,1 3.6,0.25 8.75,0.7 11.5,1 5.55,0.6 32.65,2.35 37.75,2.4 1.8,0.05 3,-0.1 2.7,-0.3 z m 70,-93 c 0.1,-0.2 0.45,-2.15 0.75,-4.35 0.3,-2.2 0.8,-4.05 1.05,-4.15 0.3,-0.1 0.5,-0.95 0.5,-1.9 0,-2.25 1,-6.2 1.55,-6.2 0.25,0 0.45,-0.65 0.45,-1.5 0,-0.8 0.25,-1.5 0.5,-1.5 0.3,0 0.5,-0.55 0.5,-1.25 0,-0.7 0.25,-1.25 0.5,-1.25 0.3,0 0.5,-0.45 0.5,-1 0,-0.55 0.35,-1 0.75,-1 0.45,0 0.9,-0.65 1.1,-1.55 0.15,-0.85 0.65,-1.65 1.1,-1.8 1.2,-0.45 3.05,-2.25 3.05,-3 0,-0.35 0.45,-0.65 1,-0.65 0.55,0 1,-0.3 1,-0.7 0,-0.35 0.6,-0.8 1.4,-0.95 2.45,-0.5 5.1,-1.6 5.1,-2.15 0,-0.75 4.95,-2.2 7.65,-2.2 1.6,0 2.35,-0.2 2.35,-0.65 0,-0.6 6,-1.85 8.9,-1.85 0.6,0 1.1,-0.2 1.1,-0.5 0,-0.25 -0.55,-0.5 -1.2,-0.5 -0.9,0 -1.3,-0.3 -1.4,-1.1 -0.1,-0.7 -0.65,-1.2 -1.6,-1.45 -0.8,-0.25 -1.65,-0.65 -1.85,-1 -0.45,-0.7 -1.45,-0.15 -1.45,0.85 0,0.45 -0.55,0.7 -1.75,0.7 -0.95,0 -1.75,-0.2 -1.75,-0.5 0,-0.25 -0.8,-0.5 -1.75,-0.5 -0.95,0 -1.75,-0.2 -1.75,-0.5 0,-0.25 -0.55,-0.5 -1.25,-0.5 -0.7,0 -1.25,-0.2 -1.25,-0.5 0,-0.25 -0.55,-0.5 -1.25,-0.5 -1,0 -1.25,-0.25 -1.25,-1.25 0,-1.15 -0.15,-1.25 -2.45,-1.25 -1.35,0 -2.8,-0.3 -3.15,-0.65 -0.35,-0.35 -1.05,-0.8 -1.5,-1 -0.5,-0.15 -0.9,-0.65 -0.9,-1.1 0,-0.4 -0.4,-0.75 -0.9,-0.75 -1.25,0 -2.1,-0.95 -2.1,-2.35 0,-0.8 -0.3,-1.15 -1,-1.15 -0.8,0 -1,-0.35 -1,-1.5 0,-1 -0.3,-1.65 -0.85,-1.85 -1.15,-0.4 -1.65,-1.15 -1.65,-2.5 0,-0.6 -0.25,-1.15 -0.55,-1.25 -0.25,-0.1 -0.65,-1.1 -0.8,-2.3 -0.15,-1.15 -0.45,-2.1 -0.65,-2.1 -0.4,0 -1.6,-4.75 -2.55,-10 -0.3,-1.8 -0.75,-3.7 -0.95,-4.25 -0.35,-0.85 -0.45,-0.75 -0.45,0.5 -0.05,0.85 -0.6,4.45 -1.3,8 -0.7,3.6 -1.25,6.55 -1.25,6.65 0,0.05 -0.55,0.1 -1.2,0.1 -1.3,0 -2.2,1.95 -1.2,2.55 0.7,0.45 0.2,4.6 -0.55,4.85 -0.3,0.1 -0.55,0.6 -0.55,1.15 0,0.5 -0.2,0.95 -0.45,0.95 -0.25,0 -0.6,0.55 -0.75,1.25 -0.2,0.7 -0.65,1.25 -1.05,1.25 -0.4,0 -0.75,0.4 -0.75,0.9 0,1.25 -0.95,2.1 -2.35,2.1 -0.8,0 -1.15,0.3 -1.15,1 0,0.55 -0.25,1 -0.55,1 -0.3,0 -0.85,0.35 -1.25,0.75 -0.45,0.4 -1.2,0.75 -1.75,0.75 -0.5,0 -0.95,0.25 -0.95,0.5 0,0.3 -0.45,0.5 -1,0.5 -0.55,0 -1,0.2 -1,0.5 0,0.25 -0.85,0.6 -1.85,0.8 -1.05,0.2 -2,0.5 -2.15,0.7 -0.4,0.5 -7.85,2.45 -12.7,3.25 -4.45,0.75 -6,1.25 -3.75,1.25 2.55,0 8.95,1.25 8.95,1.75 0,0.3 0.8,0.45 2,0.35 1.45,-0.15 2,0 2,0.5 0,0.5 0.55,0.6 2,0.5 1.55,-0.15 2,-0.05 2,0.55 0,0.95 1.05,1.35 3.55,1.35 1.4,0 1.95,0.2 1.95,0.75 0,0.45 0.45,0.75 1.2,0.75 0.7,0 1.55,0.3 1.9,0.65 0.35,0.35 1.05,0.8 1.55,1 0.55,0.2 1.05,0.8 1.2,1.35 0.15,0.55 0.55,1 0.85,1 0.55,0 2.3,1.75 2.3,2.3 0,0.15 0.35,0.6 0.75,1 0.4,0.45 0.75,1.2 0.75,1.75 0,0.5 0.2,0.95 0.5,0.95 0.25,0 0.45,1.3 0.45,2.9 -0.05,3.5 1.1,6.8 2.4,7 1.6,0.25 3,8.6 1.4,8.6 -0.4,0 -0.75,0.25 -0.75,0.5 0,0.3 0.55,0.5 1.25,0.5 1.1,0 1.25,0.2 1.25,1.7 0,1.2 -0.25,1.8 -0.85,1.95 -0.8,0.2 -0.8,0.25 -0.05,0.3 0.45,0 0.95,-0.1 1.1,-0.35 z m -14.2,-29.85 c -0.35,-0.4 -0.85,-0.75 -1.1,-0.75 -0.3,0 -0.25,0.35 0.1,0.75 0.35,0.4 0.85,0.75 1.1,0.75 0.3,0 0.25,-0.35 -0.1,-0.75 z m -36.75,-11.2 c -0.4,-0.65 -1.75,-0.75 -1.75,-0.1 0,0.25 0.4,0.55 0.9,0.65 1.05,0.25 1.3,0.1 0.85,-0.55 z M 654.5,230 c 0,-0.25 -0.35,-0.5 -0.75,-0.5 -0.4,0 -0.75,0.25 -0.75,0.5 0,0.3 0.35,0.5 0.75,0.5 0.4,0 0.75,-0.2 0.75,-0.5 z M 561,229 c 0,-0.25 -0.35,-0.5 -0.75,-0.5 -0.4,0 -0.75,0.25 -0.75,0.5 0,0.3 0.35,0.5 0.75,0.5 0.4,0 0.75,-0.2 0.75,-0.5 z m 7,-1 c 0,-0.25 -0.45,-0.5 -1,-0.5 -0.55,0 -1,0.25 -1,0.5 0,0.3 0.45,0.5 1,0.5 0.55,0 1,-0.2 1,-0.5 z m 7,-1.5 c 0,-0.25 -0.45,-0.5 -1,-0.5 -0.55,0 -1,0.25 -1,0.5 0,0.3 0.45,0.5 1,0.5 0.55,0 1,-0.2 1,-0.5 z"
       id="path68" />
    <path
       d="m 502,347.25 c 0,-1.75 0,-1.75 2.25,-1.75 2.25,0 2.25,0 2.25,1.75 0,1.75 0,1.75 -2.25,1.75 -2.25,0 -2.25,0 -2.25,-1.75 z"
       id="path69" />
    <path
       d="m 755,370.8 c 0,-0.45 0.25,-0.8 0.5,-0.8 0.3,0 0.5,-1.6 0.5,-3.75 0,-2.25 0.2,-3.75 0.5,-3.75 0.35,0 0.5,1.6 0.4,4.35 -0.15,3.7 -0.3,4.4 -1,4.55 -0.55,0.1 -0.9,-0.15 -0.9,-0.6 z"
       id="path70" />
    <path
       d="m 664.5,369 c 0.7,-0.55 1.5,-1 1.75,-1 0.3,0 -0.05,0.45 -0.75,1 -0.7,0.55 -1.45,1 -1.75,1 -0.25,0 0.05,-0.45 0.75,-1 z"
       id="path71" />
    <path
       d="m 675,361.85 c 0,-0.2 4.5,-3.55 6.25,-4.65 l 1.5,-0.9 -1.2,1.35 c -0.7,0.75 -1.5,1.35 -1.85,1.35 -0.3,0 -0.85,0.35 -1.25,0.8 -0.6,0.7 -3.45,2.45 -3.45,2.05 z"
       id="path72" />
    <path
       d="m 755.5,359.75 c 0,-0.4 0.25,-0.75 0.55,-0.75 0.35,0 0.45,-1.75 0.35,-5.25 -0.1,-3.35 0.05,-5.2 0.35,-5.1 0.5,0.2 0.75,8.4 0.35,10.75 -0.25,1.2 -1.6,1.55 -1.6,0.35 z"
       id="path73" />
    <path
       d="m 689.5,351.65 c 0,-0.25 0.7,-0.95 1.5,-1.55 0.85,-0.65 1.5,-0.9 1.5,-0.65 0,0.25 -0.65,0.95 -1.5,1.55 -0.8,0.6 -1.5,0.85 -1.5,0.65 z"
       id="path74" />
    <path
       d="m 256.35,337.65 c 0.15,-3 0.5,-5.85 0.75,-6.4 0.3,-0.65 0.35,-0.2 0.15,1.45 -0.15,1.35 -0.25,4.2 -0.25,6.35 0,2.2 -0.2,3.95 -0.45,3.95 -0.25,0 -0.35,-2.35 -0.2,-5.35 z"
       id="path75" />
    <path
       d="m 755.3,332.2 c 0.25,-1.3 0.15,-1.95 -0.35,-2.25 -0.5,-0.3 -0.4,-0.45 0.45,-0.45 1,0 1.1,0.25 1.1,2.25 0,1.7 -0.2,2.25 -0.75,2.25 -0.65,0 -0.75,-0.35 -0.45,-1.8 z"
       id="path76" />
    <path
       d="m 719,329.65 c 0.05,-0.5 3.5,-2.7 3.5,-2.25 0,0.2 -0.8,0.85 -1.75,1.5 -0.95,0.6 -1.75,0.95 -1.75,0.75 z"
       id="path77" />
    <path
       d="m 257.35,326.9 c 0.4,-2.95 0.65,-3.05 0.65,-0.25 0,1.3 -0.2,2.35 -0.45,2.35 -0.25,0 -0.35,-0.95 -0.2,-2.1 z"
       id="path78" />
    <path
       d="m 754.65,323.65 c -0.05,-2.65 -0.3,-4.95 -0.5,-5.1 -0.2,-0.15 -0.45,-1.65 -0.55,-3.3 -0.1,-1.65 -0.35,-3.05 -0.55,-3.15 -0.25,-0.05 -0.3,-0.7 -0.15,-1.4 0.15,-0.8 -0.2,-2.05 -0.9,-3.25 -0.9,-1.6 -0.95,-2.15 -0.45,-2.75 0.35,-0.4 0.8,-0.55 1,-0.35 0.45,0.45 2.65,14.7 3.2,20.55 0.25,2.8 0.15,3.6 -0.35,3.6 -0.5,0 -0.7,-1.25 -0.75,-4.85 z"
       id="path79" />
    <path
       d="m 730,321.65 c 0.05,-0.45 4.2,-3.8 5.15,-4.1 0.45,-0.15 0.4,0 -0.1,0.6 -0.35,0.5 -1,0.85 -1.35,0.85 -0.4,0 -0.7,0.2 -0.7,0.45 0,0.25 -0.65,0.95 -1.5,1.55 -0.8,0.6 -1.5,0.9 -1.5,0.65 z"
       id="path80" />
    <path
       d="m 744.75,310 c 0.5,-0.55 1.15,-1 1.4,-1 0.3,0 0.1,0.45 -0.4,1 -0.5,0.55 -1.15,1 -1.4,1 -0.3,0 -0.1,-0.45 0.4,-1 z"
       id="path81" />
  </g>
  <g
     fill="#f7f5ef"
     id="g96"
     transform="translate(-137.0303,-54.899767)">
    <path
       d="m 235.75,542.45 c -8.55,-1.3 -10.35,-1.6 -14.5,-2.55 -22.4,-5.05 -38.55,-16.2 -46.5,-32.3 -7.85,-15.8 -7.75,-36.15 0.3,-57.85 1.85,-5 5.1,-12.45 6.55,-15 0.3,-0.55 1.35,-2.45 2.3,-4.25 3.05,-5.7 11.25,-18.75 13.7,-21.75 0.2,-0.25 2.2,-2.95 4.4,-5.9 2.25,-2.95 4.45,-5.9 4.95,-6.5 0.55,-0.6 2.8,-3.35 5.1,-6.1 2.3,-2.75 5.2,-6.1 6.4,-7.5 4.3,-4.7 19,-19.45 19.2,-19.25 0.1,0.15 0.05,2.85 -0.1,6.05 -0.3,5.65 -0.35,5.85 -1.8,7.25 -3.25,3.15 -14.05,15.8 -18.5,21.7 -1.35,1.8 -2.75,3.55 -3.1,3.9 -0.35,0.35 -0.65,0.85 -0.65,1 0,0.2 -0.5,0.9 -1.15,1.6 -1.7,1.9 -7.75,10.95 -11.95,18 -6.75,11.25 -11.5,21.05 -14.1,29.25 -2.05,6.35 -2.2,6.85 -2.75,9.75 -0.3,1.5 -0.75,3.95 -1.05,5.4 -1.25,6.65 -0.4,18.8 1.8,25.5 0.95,2.9 4.3,9.15 6.35,11.85 4.95,6.55 14.85,13.6 23.35,16.7 0.95,0.35 2.2,0.8 2.75,1.05 5.45,2.05 12.6,3.6 23,5 5.25,0.65 23.1,0.65 29.75,-0.05 5.25,-0.55 19.8,-2.6 24,-3.4 9.05,-1.7 20.8,-4.5 29.9,-7.1 0.85,-0.25 2.35,-0.65 3.25,-0.9 0.85,-0.25 3.1,-0.95 5,-1.5 1.85,-0.6 4.75,-1.5 6.5,-2 4.35,-1.35 11.35,-3.7 16.35,-5.55 2.35,-0.85 5.4,-1.95 6.75,-2.5 10.9,-4 16.95,-6.35 21.15,-8.3 1.45,-0.65 2.75,-1.2 2.85,-1.2 0.1,0 1.7,-0.65 3.5,-1.5 1.8,-0.8 3.35,-1.5 3.45,-1.5 0.4,0 19.5,-8.8 27.55,-12.65 12.6,-6.05 40.6,-20.25 46.5,-23.6 1.1,-0.6 3.45,-1.9 5.25,-2.85 1.8,-0.95 4.4,-2.4 5.75,-3.15 1.4,-0.75 3.5,-1.95 4.75,-2.65 1.25,-0.7 3.7,-2.05 5.5,-3 1.8,-1 5.4,-3 8,-4.5 2.6,-1.55 6.2,-3.6 8,-4.6 1.8,-1 4.95,-2.85 7,-4.1 2.05,-1.2 7.7,-4.55 12.5,-7.4 7.8,-4.6 23.15,-14 33.5,-20.5 2.05,-1.3 5.55,-3.5 7.75,-4.85 18.35,-11.55 49.4,-32.25 67.25,-44.9 3.45,-2.4 7.5,-5.3 9,-6.35 1.5,-1.05 4.45,-3.15 6.5,-4.65 2.05,-1.5 4.65,-3.35 5.75,-4.1 1.1,-0.75 4.35,-3.15 7.25,-5.3 2.9,-2.1 5.8,-4.25 6.5,-4.75 4.2,-2.95 44.05,-33.05 44.5,-33.6 0.15,-0.15 2.5,-2.05 5.25,-4.15 12.9,-9.85 19.65,-15 21.2,-16.25 0.95,-0.75 2.85,-2.2 4.25,-3.2 5.25,-3.85 6.7,-4.95 8.2,-6.35 1.8,-1.75 3.2,-2.55 4.5,-2.55 2.05,0 11.65,7.65 11.6,9.2 -0.05,0.3 -2.1,1.95 -4.65,3.65 -2.55,1.7 -5.4,3.8 -6.35,4.6 -0.95,0.8 -6.45,5.2 -12.25,9.75 -5.75,4.6 -10.85,8.6 -11.25,8.95 -0.4,0.35 -3.8,2.95 -7.5,5.85 -3.7,2.85 -6.85,5.35 -7,5.5 -0.15,0.15 -1.05,0.85 -2,1.5 -1.5,1.05 -12.1,9.2 -14.5,11.15 -1,0.8 -15.1,11.4 -16.55,12.45 -0.65,0.45 -4.5,3.25 -8.5,6.25 -4,2.95 -8.7,6.4 -10.4,7.65 -1.75,1.25 -5,3.6 -7.25,5.25 -2.2,1.65 -5.5,4.05 -7.3,5.25 -1.8,1.25 -3.45,2.45 -3.75,2.65 -1.1,0.85 -10.25,7.3 -14.75,10.35 -2.6,1.75 -6,4.1 -7.5,5.15 -4.2,2.95 -34.55,23.1 -41.2,27.35 -3.25,2.05 -8.85,5.65 -12.5,8 -3.65,2.35 -7.05,4.5 -7.6,4.85 -18.2,11.3 -45.7,27.8 -56.05,33.7 -0.9,0.55 -2.5,1.45 -3.5,2.05 -4.85,2.75 -8.85,4.9 -9.2,4.9 -0.25,0 -0.45,0.25 -0.45,0.5 0,0.3 -0.2,0.5 -0.45,0.5 -0.25,0 -2.3,1.05 -4.6,2.35 -34.25,19 -69.15,36.3 -96.45,47.75 -2.6,1.1 -5.4,2.3 -6.25,2.65 -2.55,1.15 -14.45,5.85 -15.75,6.25 -0.7,0.25 -3.15,1.1 -5.5,2 -2.35,0.85 -5.25,1.9 -6.5,2.3 -1.25,0.45 -4.05,1.4 -6.25,2.2 -2.2,0.75 -6.35,2.15 -9.25,3 -2.9,0.9 -6.2,1.95 -7.35,2.3 -3.35,1.05 -9.15,2.6 -18.9,5 -9,2.2 -10.9,2.6 -16.5,3.7 -1.65,0.3 -4,0.75 -5.25,1 -1.25,0.2 -4.05,0.65 -6.25,1 -2.2,0.3 -5.45,0.75 -7.25,1 -8.5,1.2 -14.05,1.5 -27.85,1.45 -8.2,-0.05 -16.25,-0.3 -17.9,-0.5 z"
       id="path94" />
    <path
       d="m 806.5,285.65 c -0.35,-1.9 -0.8,-3.85 -1,-4.4 -0.25,-0.55 -0.65,-2 -1,-3.25 -0.35,-1.25 -0.8,-2.8 -1,-3.5 -0.2,-0.7 -0.65,-2.15 -0.95,-3.25 -0.3,-1.1 -1.2,-4.1 -2.05,-6.7 -0.8,-2.55 -1.5,-5.1 -1.5,-5.6 0,-1.2 -0.75,-1.2 -2.4,0 -2,1.4 -10.85,5.6 -12.7,6.05 -0.9,0.2 -2,0.55 -2.45,0.7 -0.6,0.25 -1.6,-0.4 -3.45,-2.3 -3.85,-3.9 -12.7,-14.4 -14.7,-17.4 -1.7,-2.6 -1.75,-2.7 -0.95,-4.2 0.45,-0.85 0.95,-1.65 1.1,-1.8 0.15,-0.15 0.9,-1.05 1.65,-2.1 0.75,-1 1.65,-2.1 2,-2.5 2.45,-2.6 6.4,-7.4 6.4,-7.75 -0.05,-0.2 -1.2,-0.95 -2.65,-1.6 -1.45,-0.7 -7.55,-3.65 -13.55,-6.65 -6,-2.95 -11.25,-5.4 -11.6,-5.4 -1.3,0 -0.7,-0.85 1.95,-2.6 5.6,-3.8 5.6,-3.8 13.35,-4.4 4,-0.3 9.85,-0.8 13,-1.05 9.15,-0.75 18.65,-1.4 20.05,-1.45 1,0 10.1,-5.9 13.7,-8.85 0.6,-0.5 12,-8.05 17,-11.25 6.7,-4.25 19.9,-11.45 27.5,-14.9 1.95,-0.9 4.65,-2.15 6,-2.75 6.25,-2.9 17.5,-6.9 23,-8.2 1.4,-0.35 3.3,-0.8 4.25,-1.05 0.95,-0.25 2.45,-0.55 3.25,-0.7 0.85,-0.15 2,-0.4 2.65,-0.6 1.75,-0.5 1.4,0.7 -2.05,7.45 -5.25,10.05 -9.4,16.55 -18.05,28.1 -2.45,3.3 -4.6,6.1 -4.75,6.25 -0.2,0.15 -1.55,1.7 -3.05,3.5 -1.5,1.8 -3.1,3.6 -3.5,4 -0.4,0.4 -2,2.2 -3.55,4 -4.75,5.5 -16.75,17.35 -25.55,25.3 -3,2.75 -2.85,2.4 -5.15,11.7 -0.75,2.9 -1.55,6.05 -1.8,7 -0.3,0.95 -0.7,2.55 -0.95,3.5 -0.2,0.95 -0.9,3.35 -1.5,5.25 -0.6,1.95 -1.2,4.1 -1.35,4.9 -0.15,0.75 -0.45,1.5 -0.7,1.65 -0.25,0.15 -0.45,0.7 -0.45,1.3 0,1.4 -2.75,7 -5.15,10.65 -2.95,4.35 -6,8.25 -6.45,8.25 -0.15,0 -0.5,-1.5 -0.9,-3.35 z"
       id="path95" />
    <path
       d="m 601.85,284.15 c -0.2,-0.15 -0.35,-1.35 -0.35,-2.6 -0.05,-2.95 -1.1,-10.4 -2.5,-17.05 -2.85,-13.65 -6.85,-21 -13.25,-24.4 -2.5,-1.35 -5.3,-2.5 -6.75,-2.85 -0.4,-0.1 -2.55,-0.6 -4.75,-1.15 -6.05,-1.45 -12.3,-2.5 -19.5,-3.15 -3.55,-0.3 -6.85,-0.75 -7.25,-1 -0.6,-0.35 -0.6,-0.4 -0.05,-0.45 0.55,0 0.55,-0.15 0.05,-0.75 -0.35,-0.45 -0.55,-0.9 -0.4,-1 0.1,-0.15 3.15,-0.55 6.7,-1 19.9,-2.25 31,-5.95 37.2,-12.3 1.7,-1.75 5.5,-8.6 5.5,-9.95 0,-0.3 0.25,-1.05 0.6,-1.65 0.3,-0.6 0.65,-1.45 0.7,-1.85 0.05,-0.4 0.7,-3.65 1.45,-7.25 0.7,-3.55 1.4,-7.5 1.5,-8.75 0.15,-1.25 0.4,-3.35 0.55,-4.75 0.2,-1.35 0.3,-3.4 0.25,-4.55 -0.15,-2.6 1.05,-3.9 2,-2.1 0.6,1.1 0.6,1.1 0.95,0.15 0.35,-0.9 0.4,-0.9 0.65,0.25 0.15,0.7 0.5,3.8 0.8,6.9 0.75,7.15 3.45,19.1 5.6,24.35 2.85,7 5.4,9.75 12.35,13.3 6.15,3.15 17.8,6.35 30.75,8.45 3.55,0.6 3.85,0.75 3.85,1.8 0,0.65 0.3,1.2 0.65,1.25 1.7,0.15 -2.3,0.85 -5,0.9 -10.2,0.15 -27.2,4 -33.4,7.55 -1.4,0.8 -2.8,1.3 -3,1.1 -0.25,-0.2 -0.25,-0.1 -0.1,0.2 0.3,0.55 -2.9,4.05 -3.55,3.85 -0.2,-0.1 -0.35,0.15 -0.35,0.5 0,0.3 -0.7,1.95 -1.55,3.6 -1.95,3.8 -2.95,6.75 -4.25,13 -0.8,3.95 -2.9,19.15 -2.95,21.5 0,0.3 -0.2,0.2 -0.45,-0.2 -0.3,-0.45 -0.55,-0.5 -0.75,-0.1 -0.4,0.6 -1.45,0.75 -1.95,0.2 z M 591,242.3 c 0,-0.15 -0.7,-0.75 -1.55,-1.35 -1.05,-0.75 -1.5,-0.85 -1.35,-0.4 0.25,0.8 2.9,2.35 2.9,1.75 z m -38.95,-11.8 c 0.25,0 0.45,-0.2 0.45,-0.5 0,-0.75 -1,-0.6 -1.9,0.35 -0.8,0.8 -0.8,0.8 0.05,0.5 0.5,-0.2 1.15,-0.35 1.4,-0.35 z m 103.7,0.15 c -0.55,-0.15 -1.15,-0.5 -1.3,-0.75 -0.2,-0.3 -0.8,-0.35 -1.5,-0.1 -1.2,0.4 -1.2,0.4 0.3,0.75 0.85,0.2 1.95,0.35 2.5,0.35 h 1 z M 560.9,229.1 c 0.1,-0.35 -0.15,-0.6 -0.6,-0.6 -0.45,0 -0.8,0.35 -0.8,0.8 0,0.85 1.1,0.7 1.4,-0.2 z m 8.5,-1.5 c 0.1,-0.3 -0.05,-0.6 -0.35,-0.6 -0.3,0 -0.55,0.2 -0.55,0.45 0,0.2 -0.55,0.3 -1.2,0.2 -0.7,-0.15 -1.25,0.05 -1.45,0.45 -0.2,0.6 0.1,0.65 1.55,0.45 0.95,-0.15 1.85,-0.6 2,-0.95 z m 5.8,-1.15 c -0.4,-0.7 -2.2,-0.5 -2.2,0.25 0,0.45 0.4,0.6 1.25,0.4 0.7,-0.1 1.1,-0.4 0.95,-0.65 z"
       id="path96" />
  </g>
  <g
     fill="#ac2f23"
     id="g194"
     transform="translate(-137.0303,-54.899767)">
    <path
       d="m 494.9,608.65 c 0.6,-0.1 1.6,-0.1 2.25,0 0.6,0.1 0.1,0.2 -1.15,0.2 -1.25,0 -1.75,-0.1 -1.1,-0.2 z"
       id="path97" />
    <path
       d="m 510.9,608.65 c 0.9,-0.1 2.25,-0.1 3,0 0.75,0.1 0,0.2 -1.65,0.2 -1.65,0 -2.25,-0.1 -1.35,-0.2 z"
       id="path98" />
    <path
       d="m 520.15,608.15 c 0.45,-0.1 1.25,-0.1 1.75,0 0.45,0.15 0.05,0.25 -0.9,0.25 -0.95,0 -1.35,-0.1 -0.85,-0.25 z"
       id="path99" />
    <path
       d="m 499.1,607.2 c -0.75,-0.8 -4.15,-0.85 -4.7,0 -0.2,0.3 -0.55,0.3 -1,-0.05 -0.9,-0.7 -4.85,-1.15 -5.2,-0.6 -0.45,0.75 -4.2,0.5 -5.1,-0.35 -0.65,-0.7 -1.5,-0.75 -4.95,-0.5 -2.3,0.2 -4.15,0.15 -4.15,-0.1 0,-0.25 -0.65,-0.35 -1.5,-0.2 -0.9,0.15 -1.5,0 -1.5,-0.35 0,-0.4 -0.65,-0.45 -2,-0.25 -1.45,0.25 -2,0.15 -2,-0.3 0,-0.35 -0.35,-0.5 -0.75,-0.3 -0.4,0.15 -0.75,0.05 -0.75,-0.25 0,-0.3 -0.7,-0.35 -1.75,-0.15 -1.1,0.2 -1.75,0.1 -1.75,-0.2 0,-0.3 -0.5,-0.7 -1.1,-0.9 -1.25,-0.4 -1.4,-0.25 10.35,-9.85 13.3,-10.85 20.25,-15.8 33.8,-24.1 2.25,-1.35 4.5,-2.9 5,-3.35 0.55,-0.5 1,-0.9 1.1,-0.85 0.35,0.15 3.25,-1.4 4,-2.15 0.5,-0.5 1.5,-1.05 2.25,-1.2 0.75,-0.2 1.7,-0.6 2.1,-0.95 1.2,-1 8,-4.4 8.8,-4.4 0.4,0 0.7,-0.2 0.7,-0.35 0,-0.7 21.25,-9.8 24,-10.35 0.65,-0.1 1.35,-0.4 1.5,-0.6 0.45,-0.65 8.7,-3.45 9.45,-3.15 0.4,0.1 0.55,0 0.35,-0.3 -0.2,-0.3 0.1,-0.4 0.8,-0.2 0.65,0.15 0.95,0.05 0.75,-0.25 -0.25,-0.35 0.05,-0.45 0.75,-0.25 0.65,0.15 0.95,0.05 0.75,-0.25 -0.25,-0.35 0,-0.45 0.65,-0.3 0.6,0.15 1,0 1,-0.3 0,-0.35 0.2,-0.5 0.45,-0.3 0.25,0.15 1.4,-0.2 2.55,-0.8 1.1,-0.6 2.6,-1.05 3.25,-1.05 0.7,0 1.25,-0.2 1.25,-0.45 0,-0.25 0.35,-0.3 0.75,-0.15 0.4,0.2 0.75,0.05 0.75,-0.3 0,-0.35 0.35,-0.5 0.75,-0.3 0.4,0.15 0.75,0.05 0.75,-0.25 0,-0.25 0.55,-0.35 1.2,-0.15 0.7,0.15 1.45,0 1.9,-0.5 0.45,-0.4 0.95,-0.6 1.1,-0.4 0.2,0.15 0.5,0.1 0.7,-0.2 0.5,-0.8 5.45,-2.15 6.7,-1.8 0.75,0.2 0.95,0.1 0.65,-0.35 -0.25,-0.5 -0.1,-0.55 0.7,-0.3 0.65,0.2 1.05,0.1 1.05,-0.25 0,-0.3 0.3,-0.5 0.65,-0.45 0.3,0.05 1.25,-0.15 2.05,-0.5 0.8,-0.3 1.75,-0.5 2.15,-0.35 0.35,0.15 0.65,0.05 0.65,-0.25 0,-0.25 0.55,-0.35 1.3,-0.15 0.9,0.25 1.25,0.15 1,-0.2 -0.2,-0.3 0.1,-0.4 0.7,-0.25 0.6,0.15 1,0 1,-0.35 0,-0.35 0.3,-0.5 0.7,-0.35 0.4,0.15 0.8,0.1 0.9,-0.15 0.1,-0.25 0.95,-0.55 1.9,-0.65 1,-0.1 2.05,-0.35 2.45,-0.55 0.35,-0.2 1.4,-0.4 2.35,-0.45 0.95,-0.05 1.7,-0.25 1.7,-0.5 0,-0.2 0.45,-0.25 1,-0.1 0.6,0.2 1,0.1 1,-0.25 0,-0.35 0.35,-0.5 0.7,-0.35 0.4,0.15 1.45,-0.05 2.3,-0.5 0.85,-0.4 2.35,-0.75 3.3,-0.8 0.9,-0.05 1.7,-0.25 1.7,-0.5 0,-0.2 0.45,-0.25 1,-0.1 0.6,0.2 1,0.1 1,-0.25 0,-0.35 0.3,-0.5 0.7,-0.35 0.4,0.15 0.8,0.15 0.9,-0.05 0.2,-0.45 5.65,-2.2 7.65,-2.45 0.85,-0.1 1.6,-0.4 1.65,-0.65 0.1,-0.3 0.4,-0.4 0.65,-0.2 0.25,0.15 0.45,0 0.45,-0.25 0,-0.3 0.3,-0.55 0.65,-0.55 1,0 4.65,-2.75 5.6,-4.2 0.65,-0.95 0.7,-1.45 0.25,-2.25 -0.7,-1.35 -2.85,-3.5 -3.2,-3.2 -0.55,0.55 -3.9,-1 -4.3,-2.05 -0.35,-0.85 -0.45,-0.9 -0.45,-0.15 -0.05,0.7 -0.3,0.8 -1.4,0.55 -1.95,-0.45 -2.25,-0.7 -1.95,-1.45 0.15,-0.45 -0.75,-0.85 -3.05,-1.25 -3,-0.6 -3.35,-0.55 -3.95,0.25 -0.35,0.45 -0.85,0.7 -1.15,0.5 -0.85,-0.5 -0.65,-1.25 0.35,-1.3 1.45,-0.1 -2,-0.85 -4.25,-0.9 -1.6,-0.05 -2.15,0.15 -2.15,0.7 0,0.9 -0.8,1 -1.3,0.2 -0.15,-0.3 0,-0.75 0.35,-1 0.5,-0.3 0.2,-0.45 -0.9,-0.45 -1,0 -1.8,0.3 -2.1,0.85 -0.35,0.7 -0.6,0.75 -1.15,0.25 -0.4,-0.3 -0.9,-0.45 -1.05,-0.25 -0.2,0.15 -0.35,0.05 -0.35,-0.25 0,-0.35 0.6,-0.65 1.4,-0.65 1.85,-0.1 -4,-0.85 -7.25,-0.9 -1.75,-0.05 -2.85,0.2 -3.4,0.75 -0.4,0.45 -1.1,0.65 -1.5,0.5 -1.15,-0.4 -0.9,-1.3 0.4,-1.35 0.6,-0.05 -1.15,-0.3 -3.9,-0.5 -5.35,-0.45 -10.25,-0.2 -10.25,0.6 0,0.55 -2.5,0.6 -3.45,0 -0.35,-0.25 -0.5,-0.7 -0.35,-1 0.25,-0.35 -0.3,-0.55 -1.65,-0.55 -1.5,0 -2.05,0.2 -2.05,0.75 0,0.9 -3.75,1.1 -4.25,0.25 -0.2,-0.3 -0.55,-0.35 -0.85,-0.2 -0.35,0.25 -0.45,0.05 -0.25,-0.45 0.4,-1.1 -0.8,-1.15 -1.85,-0.1 -0.85,0.85 -5.55,1.05 -6.05,0.25 -0.2,-0.3 -0.55,-0.4 -0.8,-0.25 -0.25,0.2 -0.45,0.1 -0.45,-0.2 0,-0.25 0.5,-0.6 1.15,-0.7 0.6,-0.1 0.15,-0.25 -1,-0.3 -1.25,0 -2.35,0.25 -2.85,0.7 -0.8,0.85 -3.1,1 -3.55,0.25 -0.15,-0.25 -0.6,-0.35 -1,-0.15 -0.4,0.15 -0.75,0 -0.75,-0.25 0,-0.3 0.4,-0.65 0.9,-0.75 0.65,-0.2 0.6,-0.25 -0.25,-0.3 -0.6,0 -1.3,0.3 -1.55,0.75 -0.35,0.6 -0.85,0.7 -2.25,0.45 -2.4,-0.45 -2.35,-1.15 0.05,-1.4 1.5,-0.15 1.4,-0.2 -0.75,-0.25 -2.05,-0.1 -2.65,0.05 -2.65,0.65 0,0.9 -1.05,1 -1.9,0.15 -0.35,-0.35 -0.6,-0.4 -0.6,-0.1 0,0.25 -0.25,0.1 -0.5,-0.3 -0.3,-0.5 -0.5,-0.55 -0.5,-0.1 0,0.7 -1.8,0.8 -2.25,0.1 -0.2,-0.3 -0.55,-0.4 -0.8,-0.25 -0.25,0.2 -0.45,0.05 -0.45,-0.2 0,-0.3 0.25,-0.55 0.6,-0.55 0.3,0 0.4,-0.15 0.2,-0.35 -0.2,-0.25 -0.7,0 -1.05,0.5 -0.65,0.95 -1.6,0.35 -1,-0.65 0.15,-0.25 0.1,-0.5 -0.2,-0.5 -0.25,0 -0.8,-0.15 -1.25,-0.3 -0.5,-0.2 -0.8,-0.05 -0.8,0.5 0,0.5 -0.3,0.65 -0.75,0.5 -0.4,-0.2 -0.75,-0.75 -0.75,-1.25 0,-0.85 -0.5,-1.15 -1.3,-0.8 -0.4,0.15 -1.65,-2.2 -1.7,-3.2 0,-1 2.15,-2.95 5,-4.6 2.9,-1.65 14.9,-5.95 15.55,-5.6 0.25,0.2 0.45,0.05 0.45,-0.25 0,-0.3 0.25,-0.4 0.5,-0.25 0.3,0.2 0.85,0.05 1.25,-0.25 0.4,-0.3 0.95,-0.45 1.25,-0.25 0.25,0.15 0.5,0.05 0.5,-0.25 0,-0.35 0.4,-0.45 1,-0.25 0.55,0.15 1,0.1 1,-0.15 0,-0.25 0.6,-0.35 1.3,-0.2 1,0.2 1.25,0.1 0.95,-0.4 -0.25,-0.45 -0.1,-0.5 0.7,-0.25 0.55,0.15 1.05,0.1 1.05,-0.15 0,-0.25 0.6,-0.35 1.3,-0.2 1,0.2 1.25,0.1 0.95,-0.4 -0.25,-0.45 -0.1,-0.5 0.65,-0.3 1.35,0.45 3.7,-0.15 3.25,-0.85 -0.2,-0.35 0,-0.4 0.6,-0.2 0.45,0.2 1.15,0.15 1.5,-0.15 0.35,-0.3 1.5,-0.65 2.55,-0.75 1.1,-0.1 2.05,-0.25 2.2,-0.25 0.15,-0.05 0.9,-0.05 1.7,0 0.8,0.05 1.3,-0.1 1.1,-0.4 -0.2,-0.3 0.1,-0.4 0.7,-0.25 1.4,0.35 11,-1.4 10.7,-1.95 -0.2,-0.25 0.5,-0.3 1.55,-0.1 1.4,0.25 1.8,0.2 1.55,-0.25 -0.25,-0.4 0.4,-0.5 2.55,-0.25 1.85,0.2 2.65,0.1 2.25,-0.2 -0.45,-0.3 0.2,-0.4 2,-0.3 1.85,0.15 2.35,0.1 1.65,-0.25 -0.7,-0.3 -0.05,-0.4 2,-0.2 2.25,0.15 2.8,0.1 2.25,-0.3 -0.55,-0.4 0.25,-0.5 3,-0.3 2.35,0.15 3.4,0.1 2.75,-0.15 -0.65,-0.3 0.4,-0.4 3,-0.3 2.2,0.05 3.35,0 2.55,-0.15 -0.95,-0.15 -1.25,-0.35 -0.85,-0.6 0.3,-0.2 1.85,-0.15 3.4,0.1 3.2,0.55 19.95,-0.05 18.4,-0.7 -0.55,-0.2 6.1,-0.4 14.75,-0.4 10.35,-0.05 15.5,0.15 15,0.45 -0.55,0.35 0.05,0.5 2,0.5 1.5,0 3.65,0.15 4.75,0.3 1.5,0.2 1.8,0.15 1.25,-0.25 -0.55,-0.4 0,-0.5 2.25,-0.5 2.5,0.05 2.75,0.15 1.5,0.45 -0.9,0.25 1.15,0.35 5,0.25 3.6,-0.1 5.7,-0.05 4.75,0.2 -2.5,0.5 7.75,1.25 12.35,0.85 2.4,-0.2 3.05,-0.15 2.15,0.2 -0.9,0.35 -0.2,0.4 2.5,0.25 2.7,-0.15 3.4,-0.1 2.5,0.25 -0.9,0.35 -0.05,0.45 3,0.3 2.35,-0.1 3.6,0 2.75,0.15 -1.15,0.3 -0.6,0.45 2.65,0.75 3,0.3 4.1,0.6 4.1,1.1 0,0.4 0.25,0.7 0.5,0.7 0.95,0 0.5,1.1 -0.55,1.35 -0.6,0.15 -0.9,0.55 -0.75,0.95 0.15,0.4 -0.05,0.7 -0.45,0.7 -0.9,0 -0.9,0.05 -0.3,1.65 0.45,1.1 0.35,1.2 -0.55,0.95 -0.7,-0.15 -0.95,-0.05 -0.7,0.3 0.2,0.35 0.05,0.6 -0.45,0.6 -0.55,0 -0.75,0.3 -0.55,0.9 0.35,1.1 -0.25,2 -1.75,2.8 -0.75,0.35 -1.2,1 -1.15,1.7 0,0.65 -0.25,1.1 -0.7,1.1 -0.4,0 -0.6,0.3 -0.45,0.7 0.15,0.4 -0.05,0.85 -0.45,1 -0.45,0.15 -0.6,0.5 -0.45,0.8 0.15,0.25 -0.05,0.5 -0.5,0.5 -0.55,0 -0.75,0.25 -0.55,0.75 0.15,0.4 0.05,0.75 -0.2,0.75 -0.25,0 -0.35,0.35 -0.2,0.75 0.2,0.45 0,0.75 -0.4,0.75 -0.45,0 -0.7,0.55 -0.7,1.65 0.05,1.5 -0.05,1.6 -1.4,1.45 -1.1,-0.15 -1.4,0 -1.15,0.55 0.15,0.45 -0.05,0.9 -0.45,1.05 -0.45,0.15 -0.6,0.5 -0.45,0.8 0.15,0.25 0,0.5 -0.35,0.5 -0.35,0 -1.2,0.8 -1.9,1.8 -1.8,2.5 -7.15,9.5 -9.8,12.65 -1.2,1.45 -2.05,2.85 -1.9,3.1 0.15,0.25 -0.05,0.45 -0.45,0.45 -0.85,0 -2.95,2.2 -2.5,2.65 0.15,0.2 -0.05,0.35 -0.45,0.35 -0.75,0 -1.65,1.3 -1.5,2.15 0.05,0.2 -0.15,0.35 -0.45,0.35 -0.65,0 -18.75,18 -18.15,18 0.25,0.05 -0.2,0.35 -1.05,0.7 -0.8,0.4 -2.05,1.25 -2.75,1.9 -2.35,2.2 -7.25,6.2 -11.5,9.45 -2.35,1.75 -4.55,3.5 -4.9,3.85 -0.35,0.3 -0.85,0.6 -1.05,0.6 -0.25,0 -0.4,0.55 -0.35,1.25 0.05,1.3 -0.15,1.4 -1.45,0.95 -0.45,-0.2 -1.7,0.3 -2.85,1.1 -1.1,0.8 -2.4,1.7 -2.8,1.95 -0.45,0.3 -3.15,2.05 -6.05,3.9 -2.85,1.9 -6.3,3.95 -7.6,4.65 -1.7,0.85 -2.35,1.4 -2.15,1.95 0.25,0.55 0.1,0.65 -0.45,0.45 -0.5,-0.15 -2.85,0.85 -5.7,2.4 -2.7,1.45 -5.1,2.75 -5.4,2.85 -0.25,0.1 -2.75,1.25 -5.5,2.55 -7.85,3.75 -9.55,4.5 -9.9,4.5 -0.15,0 -1.5,0.55 -2.95,1.2 -1.45,0.65 -3.7,1.55 -5,2 -1.3,0.45 -2.8,1 -3.25,1.25 -2,1 -14.45,5 -20.6,6.55 -0.95,0.25 -1.85,0.6 -2,0.85 -0.15,0.2 -1.05,0.45 -2,0.5 -0.9,0.05 -1.85,0.3 -2.05,0.6 -0.15,0.35 -0.75,0.45 -1.2,0.25 -0.55,-0.2 -1.1,-0.05 -1.35,0.35 -0.25,0.4 -0.45,0.45 -0.45,0.15 0,-0.8 -3.5,0 -4.05,0.9 -0.3,0.4 -0.45,0.45 -0.45,0.05 0,-0.3 -0.45,-0.45 -1,-0.3 -0.55,0.15 -1,0.45 -1,0.65 0,0.2 -0.55,0.25 -1.25,0.1 -0.75,-0.1 -1.25,0 -1.25,0.35 0,0.35 -0.45,0.45 -1.25,0.25 -0.75,-0.2 -1.25,-0.1 -1.25,0.2 0,0.35 -0.85,0.45 -2.4,0.25 -1.9,-0.2 -2.6,-0.1 -3.25,0.6 -0.7,0.7 -1.15,0.75 -2.4,0.3 -1.2,-0.4 -1.55,-0.35 -1.75,0.2 -0.2,0.5 -0.75,0.6 -1.75,0.4 -0.9,-0.15 -1.45,-0.05 -1.45,0.3 0,0.35 -1.3,0.45 -4.4,0.25 -3.7,-0.3 -4.55,-0.2 -5.2,0.5 -0.95,0.9 -2.7,1.05 -4.6,0.3 -0.95,-0.35 -1.45,-0.3 -2,0.25 -0.9,0.9 -2.3,1 -2.3,0.15 0,-0.45 -0.2,-0.4 -0.5,0.1 -0.25,0.45 -0.5,0.5 -0.5,0.15 0,-0.75 -6.65,-0.5 -6.9,0.3 -0.3,0.9 -9.2,0.7 -10,-0.25 z"
       id="path100" />
    <path
       d="m 452.1,602.9 c -2.4,-0.55 -2.65,-1.75 -0.3,-1.5 2.15,0.2 4.7,1.1 4.7,1.65 0,0.55 -1.55,0.5 -4.4,-0.15 z"
       id="path101" />
    <path
       d="m 445.25,600.7 c -0.45,-0.45 -0.7,-0.9 -0.6,-1 0.3,-0.35 2.7,0.65 3.1,1.25 0.5,0.85 -1.6,0.65 -2.5,-0.25 z"
       id="path102" />
    <path
       d="m 438.75,599.5 c -0.55,-0.2 -2.35,-0.8 -4,-1.25 -1.65,-0.5 -3.3,-1.2 -3.6,-1.65 -0.4,-0.5 -0.65,-0.55 -0.65,-0.2 0,0.45 -0.25,0.5 -0.95,0.1 -0.55,-0.25 -1.45,-0.5 -2,-0.5 -0.6,0 -1.05,-0.2 -1.05,-0.45 0,-0.65 1.4,-1.1 1.75,-0.5 0.2,0.25 0.55,0.35 0.8,0.2 0.25,-0.2 0.45,-0.05 0.45,0.25 0,0.35 0.35,0.5 0.75,0.3 0.4,-0.15 1.4,0 2.15,0.3 0.75,0.3 1.8,0.65 2.35,0.75 0.55,0.1 1.05,0.4 1.15,0.65 0.1,0.25 0.45,0.35 0.8,0.2 0.35,-0.15 1.3,0.05 2.1,0.35 1.6,0.7 1.95,0.8 2.7,0.9 0.3,0 0.5,0.3 0.5,0.55 0,0.6 -1.85,0.6 -3.25,0 z"
       id="path103" />
    <path
       d="m 422.5,594.15 c -1.8,-0.7 -3.65,-1.35 -4.1,-1.5 -0.5,-0.15 -0.9,-0.65 -0.9,-1.1 0,-0.65 0.1,-0.65 0.45,-0.1 0.25,0.35 0.7,0.5 1,0.35 0.3,-0.2 0.55,-0.15 0.55,0.15 0,0.3 0.35,0.4 0.75,0.25 0.4,-0.2 0.75,-0.05 0.75,0.25 0,0.3 0.3,0.4 0.7,0.25 0.35,-0.15 1,0.05 1.35,0.45 0.4,0.35 0.95,0.6 1.2,0.5 0.7,-0.2 1.9,0.65 1.7,1.2 -0.1,0.3 -1.6,0 -3.45,-0.7 z"
       id="path104" />
    <path
       d="m 412.4,590.35 c -2.15,-0.9 -3.9,-1.9 -3.9,-2.2 0,-0.9 0.75,-0.8 1.7,0.15 0.45,0.4 1,0.6 1.3,0.45 0.25,-0.15 0.5,-0.05 0.5,0.25 0,0.3 0.2,0.45 0.45,0.25 0.6,-0.35 3.05,0.75 3.05,1.4 0,0.25 0.35,0.35 0.7,0.2 0.5,-0.2 0.65,-0.05 0.45,0.45 -0.15,0.35 -0.3,0.7 -0.35,0.65 0,-0.05 -1.8,-0.75 -3.9,-1.6 z"
       id="path105" />
    <path
       d="m 398.9,584.15 c -4.35,-2.1 -7.9,-4.1 -7.9,-4.45 0,-0.55 0.25,-0.55 1.25,-0.1 0.7,0.3 1.25,0.75 1.25,1 0,0.2 0.15,0.35 0.4,0.3 0.6,-0.2 3.6,1.2 3.6,1.7 0,0.25 0.25,0.3 0.5,0.15 0.3,-0.15 0.5,-0.05 0.5,0.25 0,0.3 0.25,0.4 0.5,0.25 0.3,-0.15 0.5,-0.1 0.5,0.2 0,0.3 0.35,0.4 0.75,0.25 0.4,-0.2 0.85,0.05 1.05,0.5 0.15,0.45 0.5,0.65 0.75,0.55 0.4,-0.25 3.4,1.05 3.95,1.7 0.15,0.15 0.55,0.3 0.95,0.3 0.4,0 0.8,0.3 0.95,0.65 0.35,1.1 -1.05,0.6 -9,-3.25 z"
       id="path106" />
    <path
       d="m 382.9,575.65 c -0.5,-0.1 -0.9,-0.55 -0.9,-0.95 0,-0.55 0.2,-0.5 1,0.15 0.85,0.75 1.3,1.3 0.9,1.1 -0.1,-0.05 -0.55,-0.15 -1,-0.3 z"
       id="path107" />
    <path
       d="m 379.6,573.7 c -0.6,-0.4 -1.1,-1.05 -1.05,-1.35 0,-0.45 0.1,-0.4 0.3,0.05 0.1,0.3 0.45,0.5 0.7,0.3 0.25,-0.15 0.45,0 0.45,0.25 0,0.3 0.25,0.5 0.55,0.45 0.3,-0.1 0.7,0.15 0.8,0.5 0.3,0.8 -0.4,0.75 -1.75,-0.2 z"
       id="path108" />
    <path
       d="m 375.2,570.75 c -0.2,-0.4 -0.5,-0.6 -0.75,-0.45 -0.25,0.15 -0.6,-0.05 -0.75,-0.5 -0.15,-0.4 -0.6,-0.6 -1,-0.45 -0.45,0.15 -0.7,-0.05 -0.7,-0.65 0,-0.8 0.1,-0.85 0.5,-0.2 0.25,0.4 0.5,0.55 0.5,0.25 0,-0.25 0.3,-0.15 0.65,0.3 0.6,0.8 0.9,0.95 1.8,0.95 0.25,0 0.55,0.35 0.75,0.75 0.15,0.4 0.05,0.75 -0.25,0.75 -0.25,0 -0.6,-0.35 -0.75,-0.75 z"
       id="path109" />
    <path
       d="m 368.5,566.75 c -0.35,-0.45 -0.5,-0.9 -0.3,-1.1 0.15,-0.15 0.3,-0.05 0.3,0.3 0,0.35 0.25,0.45 0.5,0.3 0.3,-0.15 0.5,0.05 0.5,0.45 0,1 -0.2,1 -1,0.05 z"
       id="path110" />
    <path
       d="m 363.15,563.15 c -0.35,-0.1 -0.65,-0.6 -0.6,-1.05 0,-0.55 0.1,-0.6 0.3,-0.2 0.1,0.3 0.45,0.5 0.7,0.3 0.25,-0.15 0.45,0.1 0.45,0.5 0,0.45 -0.05,0.8 -0.1,0.75 -0.1,0 -0.45,-0.15 -0.75,-0.3 z"
       id="path111" />
    <path
       d="m 361.2,561.6 c -0.3,-0.2 -0.65,-0.75 -0.85,-1.2 -0.25,-0.75 -0.2,-0.8 0.65,-0.25 0.55,0.3 1,0.85 1,1.2 0,0.75 -0.05,0.75 -0.8,0.25 z"
       id="path112" />
    <path
       d="m 353.85,556.15 c -0.95,-0.8 -1.9,-1.85 -2.1,-2.4 -0.2,-0.6 -0.4,-0.75 -0.55,-0.4 -0.25,0.55 -2.45,-1.1 -8.35,-6.2 -0.8,-0.65 -1.35,-1.55 -1.25,-1.95 0.1,-0.45 1.65,-1.3 3.6,-2 4,-1.4 3.8,-1.35 3.8,-0.7 0,0.3 -0.4,0.5 -0.85,0.5 -1.55,0 -5.65,1.7 -5.5,2.25 0.1,0.25 2.95,2.8 6.35,5.55 5.25,4.35 7.65,6.7 6.85,6.7 -0.1,0 -1,-0.6 -2,-1.35 z"
       id="path113" />
    <path
       d="m 355.25,539.8 c 3.9,-1.5 5.6,-2 5.15,-1.55 -0.4,0.45 -6.9,2.7 -7.65,2.7 -0.25,0 0.85,-0.55 2.5,-1.15 z"
       id="path114" />
    <path
       d="m 366.5,535.85 c 0.4,-0.4 7.2,-2.85 7.4,-2.65 0.1,0.1 -1.05,0.65 -2.5,1.2 -3.45,1.25 -5.2,1.8 -4.9,1.45 z"
       id="path115" />
    <path
       d="m 379.55,530.8 c 0.4,-0.4 3.95,-1.75 3.95,-1.5 0,0.15 -0.8,0.6 -1.75,1 -1.65,0.7 -2.65,0.9 -2.2,0.5 z"
       id="path116" />
    <path
       d="m 387,527.6 c 0.4,-0.25 1.3,-0.65 2,-0.8 0.85,-0.25 1,-0.2 0.5,0.1 -0.4,0.25 -1.3,0.65 -2,0.8 -0.85,0.25 -1,0.2 -0.5,-0.1 z"
       id="path117" />
    <path
       d="m 391.5,525.8 c 0.7,-0.35 1.8,-0.8 2.5,-1 0.7,-0.15 0.35,0.15 -0.75,0.65 -2.25,1.1 -3.65,1.35 -1.75,0.35 z"
       id="path118" />
    <path
       d="m 400,522.25 c 1.65,-0.95 2.25,-0.95 1.3,0 -0.4,0.4 -1.15,0.75 -1.65,0.75 -0.7,-0.05 -0.65,-0.2 0.35,-0.75 z"
       id="path119" />
    <path
       d="m 405.95,519.7 c 1.45,-0.7 2.8,-1.1 2.95,-1 0.1,0.15 -0.4,0.5 -1.2,0.8 -0.8,0.25 -1.85,0.75 -2.3,1 -0.5,0.3 -1.15,0.5 -1.5,0.45 -0.35,0 0.55,-0.6 2.05,-1.25 z"
       id="path120" />
    <path
       d="m 414,516 c 0.95,-0.55 2,-0.95 2.25,-0.95 0.3,0 -0.3,0.4 -1.25,0.95 -0.95,0.55 -1.95,0.95 -2.25,0.95 -0.25,0 0.3,-0.4 1.25,-0.95 z"
       id="path121" />
    <path
       d="m 428.05,509.8 c 0.5,-0.45 3.45,-1.8 3.45,-1.6 0,0.3 -2.75,1.8 -3.3,1.8 -0.2,0 -0.25,-0.1 -0.15,-0.2 z"
       id="path122" />
    <path
       d="m 629,507 c -0.85,-0.55 -0.4,-1.15 0.7,-0.9 0.45,0.1 0.6,0.4 0.4,0.75 -0.25,0.4 -0.65,0.45 -1.1,0.15 z"
       id="path123" />
    <path
       d="m 441.75,503.2 c 3.95,-2.05 6.75,-3.3 6.75,-3 0,0.3 -7.65,4.15 -9.05,4.5 -0.65,0.2 0.4,-0.5 2.3,-1.5 z"
       id="path124" />
    <path
       d="m 605.95,503.7 c -0.55,-0.7 -0.45,-0.75 0.8,-0.6 0.8,0.05 1.5,0.45 1.65,0.8 0.3,0.9 -1.65,0.75 -2.45,-0.2 z"
       id="path125" />
    <path
       d="m 590.85,503.15 c -0.75,-0.75 -0.25,-1.15 1.4,-1.15 1.2,0 1.75,0.25 1.75,0.75 0,0.75 -2.5,1.1 -3.15,0.4 z"
       id="path126" />
    <path
       d="m 303.55,499.65 c -0.35,-0.4 -0.95,-0.6 -1.35,-0.45 -0.45,0.2 -1.25,-0.45 -2.1,-1.7 -0.75,-1.1 -2.4,-3.45 -3.7,-5.25 -1.35,-1.75 -2.4,-3.45 -2.4,-3.7 0,-0.3 -0.4,-1 -0.85,-1.5 -1.4,-1.7 -4.7,-7.05 -4.3,-7.05 0.35,0 2.6,3.25 5.4,7.75 1.2,1.95 4.6,6.95 6.25,9.15 1.05,1.4 1.5,1.6 3.45,1.6 1.25,0 3.45,-0.35 4.8,-0.8 1.4,-0.4 4.65,-1.3 7.25,-2 2.6,-0.7 5.65,-1.6 6.75,-2 1.1,-0.45 3.6,-1.2 5.5,-1.75 9.45,-2.5 26.55,-8.55 44.6,-15.75 4.45,-1.75 8.55,-3.2 9.15,-3.2 0.6,0 0.95,-0.2 0.8,-0.45 -0.3,-0.5 4.15,-1.75 4.6,-1.3 0.45,0.45 -0.15,0.75 -5.75,3.05 -16.4,6.8 -26.95,10.8 -38.65,14.7 -12.7,4.2 -15.85,5.05 -17.3,4.7 -1.1,-0.3 -1.3,-0.2 -1.1,0.4 0.2,0.5 -0.35,0.9 -2.05,1.35 -1.25,0.4 -4.2,1.25 -6.55,1.9 -8.85,2.55 -11.7,3.05 -12.45,2.3 z"
       id="path127" />
    <path
       d="m 462.55,492.8 c 0.7,-0.65 5.45,-2.75 5.45,-2.4 0,0.25 -1.15,0.9 -2.5,1.5 -2.35,1 -3.45,1.35 -2.95,0.9 z"
       id="path128" />
    <path
       d="m 470,489 c 0.95,-0.55 2.1,-0.95 2.5,-0.95 0.4,0 -0.15,0.45 -1.25,0.95 -2.65,1.2 -3.5,1.2 -1.25,0 z"
       id="path129" />
    <path
       d="m 476.9,485.55 c 2.2,-1.4 7.65,-4.15 7.85,-3.95 0.2,0.15 -7.85,4.5 -8.95,4.8 -0.3,0.1 0.2,-0.3 1.1,-0.85 z"
       id="path130" />
    <path
       d="m 287.65,478.7 c -0.15,-0.45 -1.4,-2.75 -2.8,-5.15 -6.7,-11.65 -13.1,-27.25 -19.4,-47.3 -1.35,-4.45 -3.35,-12.7 -3.7,-15.25 -0.15,-1.25 0.6,1.15 1.7,5.25 1.95,7.65 4.8,17.2 6.3,21.25 0.45,1.25 1.25,3.5 1.75,5.05 1.35,3.85 7.1,17.25 9.8,22.7 2.05,4.25 3.65,7.15 6.55,12.15 0.7,1.15 1,2.1 0.7,2.1 -0.35,0 -0.7,-0.35 -0.9,-0.8 z"
       id="path131" />
    <path
       d="m 492.45,477.25 c 1.8,-0.95 3.3,-1.65 3.4,-1.6 0.2,0.25 -5.4,3.35 -6,3.35 -0.35,0 0.85,-0.8 2.6,-1.75 z"
       id="path132" />
    <path
       d="m 497.5,474.25 c 1.65,-0.95 2.5,-0.9 1.3,0 -0.55,0.4 -1.35,0.75 -1.75,0.75 -0.5,-0.05 -0.35,-0.3 0.45,-0.75 z"
       id="path133" />
    <path
       d="m 388,470.75 c 0,-0.4 0.3,-0.75 0.7,-0.75 0.65,0 1.35,-0.3 6.8,-2.9 1.25,-0.6 2.65,-1.1 3.15,-1.1 0.5,0 0.8,-0.2 0.6,-0.5 -0.15,-0.25 0.7,-0.75 1.85,-1.05 1.2,-0.35 2.35,-0.8 2.65,-1.05 0.25,-0.2 0.85,-0.4 1.4,-0.4 0.5,0 0.75,-0.2 0.6,-0.5 -0.15,-0.25 0.15,-0.5 0.7,-0.5 0.6,0 1.05,-0.2 1.05,-0.45 0,-0.25 1.5,-0.95 3.4,-1.55 1.85,-0.65 3.7,-1.45 4.1,-1.8 0.45,-0.35 2.15,-1.25 3.75,-1.95 1.65,-0.75 5.95,-2.75 9.5,-4.5 3.6,-1.75 7.1,-3.35 7.9,-3.55 0.75,-0.15 1.35,-0.45 1.35,-0.65 0,-0.15 1.65,-1.1 3.65,-2.05 1.95,-0.95 3.7,-1.9 3.85,-2.05 0.15,-0.15 2.85,-1.6 6,-3.2 5.45,-2.75 7.5,-3.8 15.4,-8.05 1.85,-1.05 4.7,-2.55 6.35,-3.45 1.65,-0.9 5.1,-2.75 7.65,-4.2 2.55,-1.4 4.8,-2.55 4.95,-2.55 0.2,0 0.7,-0.3 1.1,-0.7 0.45,-0.35 2.5,-1.55 4.55,-2.6 2.05,-1.05 4.05,-2.25 4.45,-2.6 0.35,-0.35 1.35,-0.8 2.15,-0.95 0.8,-0.15 1.6,-0.6 1.75,-0.95 0.1,-0.35 2.5,-1.95 5.25,-3.55 2.8,-1.6 5.85,-3.4 6.85,-4.05 1,-0.6 2.5,-1.45 3.3,-1.85 0.85,-0.4 2.5,-1.4 3.75,-2.25 1.25,-0.8 2.45,-1.5 2.65,-1.5 0.25,0 1.15,-0.55 2,-1.2 0.9,-0.65 3.95,-2.6 6.85,-4.3 2.9,-1.75 6.05,-3.65 7,-4.3 1.95,-1.35 3,-1.55 3,-0.5 0,0.95 -18.25,11.85 -19.25,11.5 -0.55,-0.2 -0.9,0 -1.05,0.6 -0.35,1.3 -11.3,7.8 -12.4,7.4 -0.6,-0.25 -0.95,0 -1.1,0.65 -0.3,1 -2.25,2.3 -3.7,2.45 -0.4,0 -1,0.1 -1.35,0.15 -0.3,0 -0.65,0.4 -0.75,0.85 -0.15,0.7 -5.4,3.95 -13.15,8.2 -1.35,0.75 -3.3,1.8 -4.25,2.35 -12.7,7.2 -34,18.35 -50,26.25 -9.2,4.5 -33.75,15.85 -37.75,17.4 -0.55,0.2 -2.3,1 -3.85,1.7 -3.3,1.5 -3.4,1.55 -3.4,0.55 z"
       id="path134" />
    <path
       d="m 628.15,470.65 c 0.75,-0.1 1.95,-0.1 2.75,0 0.75,0.1 0.1,0.2 -1.4,0.2 -1.5,0 -2.15,-0.1 -1.35,-0.2 z"
       id="path135" />
    <path
       d="m 507.55,468.8 c 0.1,-0.1 1.65,-1.05 3.45,-2.05 1.8,-1 2.9,-1.5 2.5,-1.1 -0.8,0.75 -5.3,3.35 -5.85,3.35 -0.15,0 -0.2,-0.1 -0.1,-0.2 z"
       id="path136" />
    <path
       d="m 729.6,468.4 c -0.5,-0.5 -0.35,-0.75 0.5,-1.25 0.65,-0.35 0.85,-0.6 0.55,-0.65 -1,0 -0.75,-1 0.25,-1 0.7,0 0.75,-0.1 0.1,-0.5 -0.6,-0.4 -0.6,-0.5 0.25,-0.5 0.85,0 0.85,-0.1 0.25,-0.5 -0.65,-0.4 -0.6,-0.5 0.15,-0.5 1.1,0 1.05,0.8 -0.3,3.4 -0.9,1.65 -1.25,2 -1.75,1.5 z"
       id="path137" />
    <path
       d="m 732.8,460.75 c -0.25,-0.7 0.65,-1.95 1.8,-2.4 0.5,-0.2 0.45,-0.4 -0.1,-0.8 -0.6,-0.4 -0.6,-0.55 -0.05,-0.55 0.35,0 0.55,-0.3 0.35,-0.75 -0.15,-0.4 -0.05,-0.75 0.25,-0.75 0.3,0 0.35,-0.2 0.2,-0.5 -0.15,-0.25 0.1,-0.5 0.6,-0.5 0.75,0 0.8,-0.1 0.15,-0.5 -0.6,-0.4 -0.6,-0.5 0.25,-0.5 0.85,0 0.85,-0.1 0.25,-0.5 -0.6,-0.35 -0.6,-0.5 -0.05,-0.5 0.35,0 0.55,-0.3 0.35,-0.75 -0.15,-0.5 0.05,-0.75 0.6,-0.75 0.65,0 0.7,-0.1 0.2,-0.4 -0.85,-0.55 -0.25,-2.1 0.85,-2.1 0.7,0 0.7,-0.1 0.05,-0.55 -0.55,-0.4 -0.6,-0.6 -0.1,-0.8 0.3,-0.1 0.5,-0.45 0.3,-0.7 -0.15,-0.25 0.15,-0.45 0.65,-0.45 0.75,0 0.8,-0.1 0.15,-0.55 -0.55,-0.35 -0.6,-0.6 -0.15,-0.75 0.35,-0.15 0.5,-0.55 0.35,-0.9 -0.15,-0.4 0.1,-1.05 0.55,-1.5 0.45,-0.45 0.65,-1 0.5,-1.3 -0.15,-0.25 0.05,-0.5 0.55,-0.5 0.65,0 0.7,-0.15 0.2,-0.75 -0.35,-0.4 -0.45,-0.75 -0.2,-0.75 0.25,0 0.5,-0.6 0.55,-1.35 0,-0.75 0.3,-1.45 0.6,-1.55 0.25,-0.1 0.35,-0.5 0.2,-0.9 -0.15,-0.45 0.05,-0.7 0.65,-0.7 0.8,0 0.85,-0.1 0.2,-0.5 -0.6,-0.4 -0.6,-0.5 -0.05,-0.5 0.4,0 0.55,-0.35 0.4,-1 -0.15,-0.55 -0.05,-1 0.25,-1 0.3,0 0.35,-0.35 0.2,-0.8 -0.2,-0.55 -0.1,-0.75 0.35,-0.55 0.45,0.15 0.6,-0.3 0.6,-1.7 0,-1.1 0.15,-1.95 0.4,-1.95 0.25,0 0.35,-0.35 0.15,-0.75 -0.15,-0.5 0.05,-0.75 0.6,-0.75 0.75,0 0.75,-0.1 0.1,-0.5 -0.6,-0.4 -0.65,-0.55 -0.05,-0.95 0.4,-0.25 0.55,-0.8 0.3,-1.5 -0.15,-0.55 -0.1,-1.05 0.15,-1.05 0.25,0 0.5,-0.3 0.45,-0.6 -0.05,-2.1 0.2,-2.9 1.05,-2.9 0.7,0 0.75,-0.1 0.1,-0.5 -0.6,-0.4 -0.6,-0.6 -0.1,-0.9 0.45,-0.3 0.55,-0.9 0.3,-1.75 -0.2,-0.85 -0.1,-1.35 0.25,-1.35 0.3,0 0.4,-0.35 0.25,-0.75 -0.2,-0.5 0,-0.75 0.6,-0.75 0.7,0 0.8,-0.1 0.3,-0.45 -0.7,-0.45 -0.35,-4.05 0.4,-4.05 0.2,0 0.3,-0.8 0.15,-1.75 -0.15,-1.15 -0.05,-1.75 0.35,-1.75 0.35,0 0.5,-0.3 0.35,-0.7 -0.15,-0.4 0.05,-0.85 0.45,-1 0.55,-0.2 0.6,-0.55 0.15,-1.65 -0.35,-0.95 -0.35,-1.45 0,-1.55 0.3,-0.1 0.4,-0.7 0.25,-1.4 -0.2,-0.75 -0.1,-1.2 0.25,-1.2 0.4,0 0.5,-0.55 0.25,-1.75 -0.2,-1.15 -0.1,-1.75 0.25,-1.75 0.35,0 0.45,-0.45 0.25,-1.25 -0.25,-0.95 -0.1,-1.25 0.5,-1.25 0.45,0 0.8,-0.2 0.8,-0.5 0,-0.25 -0.2,-0.5 -0.5,-0.5 -0.25,0 -0.5,-0.55 -0.5,-1.25 0,-0.8 0.3,-1.25 0.8,-1.25 0.55,0 0.7,-0.25 0.45,-0.85 -0.85,-2.25 -0.85,-4 0,-4.35 0.85,-0.3 0.85,0 0.55,4.25 -0.2,2.5 -0.7,6.3 -1.1,8.4 -0.4,2.1 -1.05,5.7 -1.5,8.05 -1.55,8.5 -2.75,13.6 -5.45,23.5 -2.35,8.5 -7.2,21.9 -11.25,31.15 -2.15,4.85 -2.65,5.5 -3.2,4.1 z"
       id="path138" />
    <path
       d="m 532,454.8 c 0,-0.35 3.6,-2.35 3.85,-2.15 0.1,0.15 -0.55,0.7 -1.5,1.3 -1.65,1 -2.35,1.25 -2.35,0.85 z"
       id="path139" />
    <path
       d="m 543.75,447.75 c 0.55,-0.45 1.45,-1.05 2,-1.3 l 1,-0.5 -1,0.8 c -0.55,0.45 -1.45,1.05 -2,1.3 l -1,0.5 z"
       id="path140" />
    <path
       d="m 554.9,440.95 c 0.9,-0.6 1.75,-0.95 1.9,-0.8 0.15,0.15 -0.45,0.6 -1.35,1.05 -2.25,1.1 -2.5,1 -0.55,-0.25 z"
       id="path141" />
    <path
       d="m 569.5,432 c 0.7,-0.5 1.35,-0.85 1.45,-0.7 0.3,0.25 -1.55,1.65 -2.2,1.65 -0.25,0.05 0.05,-0.4 0.75,-0.95 z"
       id="path142" />
    <path
       d="m 575,428.85 c 0,-0.1 0.9,-0.8 2,-1.55 1.1,-0.7 2,-1.15 2,-0.95 0,0.25 -0.75,0.85 -1.65,1.4 -2,1.25 -2.35,1.4 -2.35,1.1 z"
       id="path143" />
    <path
       d="m 579.5,425.8 c 0,-0.1 0.8,-0.65 1.75,-1.25 0.95,-0.55 1.75,-0.85 1.75,-0.65 0,0.25 -0.8,0.8 -1.75,1.25 -0.95,0.45 -1.75,0.75 -1.75,0.65 z"
       id="path144" />
    <path
       d="m 596,415.3 c 0,-0.1 0.6,-0.6 1.4,-1.05 l 1.35,-0.9 -0.95,1.05 c -0.85,1 -1.8,1.45 -1.8,0.9 z"
       id="path145" />
    <path
       d="m 259.8,401.55 c -0.75,-3.85 -1.3,-7.5 -1.15,-8.15 0.2,-0.95 0.25,-0.9 0.3,0.35 0.05,0.85 0.7,4.5 1.5,8.15 0.75,3.6 1.2,6.6 1,6.6 -0.15,0 -0.95,-3.15 -1.65,-6.95 z"
       id="path146" />
    <path
       d="m 609.7,406.25 c 1.35,-0.95 2.7,-1.75 2.95,-1.75 0.5,0 -1,1.25 -3.25,2.65 -2.45,1.5 -2.2,0.9 0.3,-0.9 z"
       id="path147" />
    <path
       d="m 620.5,399 c 0.7,-0.5 1.35,-0.85 1.45,-0.7 0.3,0.25 -1.55,1.65 -2.2,1.65 -0.25,0.05 0.05,-0.4 0.75,-0.95 z"
       id="path148" />
    <path
       d="m 626.5,395 c 0.7,-0.55 1.6,-1 2,-1 0.4,0 0,0.45 -0.9,1 -2.05,1.25 -2.75,1.25 -1.1,0 z"
       id="path149" />
    <path
       d="m 629.5,393.35 c 0,-0.15 1.1,-1.05 2.5,-2.05 1.35,-0.95 2.35,-1.5 2.2,-1.15 -0.1,0.35 -0.7,0.95 -1.35,1.3 -0.6,0.4 -1.6,1.05 -2.2,1.45 -0.65,0.4 -1.15,0.6 -1.15,0.45 z"
       id="path150" />
    <path
       d="m 257.65,387.75 c 0,-1.1 0.1,-1.5 0.2,-0.85 0.1,0.6 0.1,1.5 0,2 -0.15,0.45 -0.25,-0.05 -0.2,-1.15 z"
       id="path151" />
    <path
       d="m 542.85,388.35 c -0.3,-0.8 3.9,-3.55 4.85,-3.2 0.4,0.15 0.8,-0.1 0.9,-0.55 0.15,-0.5 1.1,-1.3 2.2,-1.85 1.05,-0.55 2.05,-1.15 2.1,-1.35 0.1,-0.25 0.6,-0.4 1.15,-0.4 0.5,0 0.95,-0.25 0.95,-0.5 0,-0.3 0.4,-0.7 0.9,-0.85 0.45,-0.2 1.3,-0.75 1.85,-1.3 0.55,-0.5 2.35,-1.75 4,-2.75 1.65,-1 3.9,-2.45 4.95,-3.2 2,-1.45 4.05,-1.9 3.65,-0.75 -0.1,0.3 -0.7,0.55 -1.35,0.45 -0.75,-0.05 -1.05,0.1 -0.85,0.6 0.3,0.8 -3.05,2.8 -4.1,2.4 -0.4,-0.15 -0.6,0.05 -0.45,0.45 0.3,0.9 -2.35,2.5 -3.45,2.1 -0.6,-0.25 -0.75,-0.1 -0.55,0.45 0.25,0.55 -0.9,1.5 -4.15,3.45 -2.5,1.45 -4.75,2.7 -5.1,2.7 -0.35,0 -1.35,0.75 -2.2,1.65 -1.25,1.25 -1.9,1.6 -2.7,1.35 -0.75,-0.25 -1.1,-0.1 -1.3,0.7 -0.3,1.2 -0.9,1.35 -1.3,0.4 z"
       id="path152" />
    <path
       d="m 257.05,383.15 c 0,-1.45 0.1,-1.65 0.4,-0.9 0.35,0.9 0.2,2.75 -0.25,2.75 -0.1,0 -0.2,-0.85 -0.15,-1.85 z"
       id="path153" />
    <path
       d="m 645.9,381.95 c 1.2,-0.85 2.25,-1.45 2.4,-1.35 0.25,0.3 -3.4,2.9 -4.05,2.9 -0.25,0 0.5,-0.7 1.65,-1.55 z"
       id="path154" />
    <path
       d="m 755.1,379.35 c -0.75,-1.75 -0.75,-3.85 -0.05,-3.85 0.35,0 0.4,-0.9 0.2,-2.75 -0.3,-2.3 -0.25,-2.75 0.4,-2.75 0.4,0 0.9,-0.3 1,-0.6 0.3,-0.75 -0.1,4.4 -0.65,8.6 -0.35,2.65 -0.35,2.7 -0.9,1.35 z"
       id="path155" />
    <path
       d="m 256.5,378.5 c 0,-0.8 0.1,-1.5 0.2,-1.5 0.1,0 0.3,0.7 0.4,1.5 0.15,0.85 0.05,1.5 -0.2,1.5 -0.2,0 -0.4,-0.65 -0.4,-1.5 z"
       id="path156" />
    <path
       d="m 651.55,378.05 c 0.65,-0.55 1.3,-0.85 1.45,-0.7 0.3,0.3 -1.5,1.65 -2.15,1.65 -0.25,0 0.05,-0.45 0.7,-0.95 z"
       id="path157" />
    <path
       d="m 255.85,366.8 c -0.7,-10.8 -0.2,-27.25 0.75,-25.6 0.3,0.5 0.25,2.15 -0.05,4.3 -0.6,3.9 -0.65,16.7 -0.1,21.25 0.2,1.65 0.25,3.55 0.05,4.25 -0.2,0.75 -0.45,-0.9 -0.65,-4.2 z"
       id="path158" />
    <path
       d="m 756.3,367.6 c -0.2,-0.65 -0.25,-1.3 -0.1,-1.45 0.5,-0.55 0.9,0.2 0.7,1.45 l -0.2,1.15 z"
       id="path159" />
    <path
       d="m 513.9,366.7 c 1.1,-0.75 2.1,-0.6 2.1,0.35 0,0.25 -0.75,0.45 -1.6,0.45 -1.6,0 -1.6,0 -0.5,-0.8 z"
       id="path160" />
    <path
       d="m 492.85,365.65 c -0.6,-0.55 -0.4,-1.15 0.4,-1.15 0.4,0 0.75,0.35 0.75,0.75 0,0.8 -0.6,1 -1.15,0.4 z"
       id="path161" />
    <path
       d="m 511.5,364.95 c -8.1,-0.5 -17,-1.15 -19.75,-1.45 -2.75,-0.3 -7.9,-0.75 -11.5,-1 -3.55,-0.25 -8.05,-0.7 -10,-1 -1.9,-0.25 -5.65,-0.7 -8.25,-0.95 -11.6,-1.25 -30.85,-4.7 -36.45,-6.6 -2.15,-0.75 -2.55,-0.8 -2.05,-0.2 0.45,0.55 0.45,0.75 0.05,0.75 -0.3,0 -0.7,-0.4 -0.9,-0.85 -0.15,-0.5 -0.85,-1.35 -1.5,-1.9 -0.65,-0.55 -1.4,-1.85 -1.65,-2.9 -0.2,-1.05 -0.3,-1.8 -0.15,-1.7 0.1,0.15 1.05,-0.3 2,-0.95 1,-0.65 2.1,-1.2 2.5,-1.2 0.4,0 0.6,-0.2 0.45,-0.45 -0.2,-0.25 0.2,-0.35 0.8,-0.15 0.8,0.2 0.95,0.1 0.65,-0.4 -0.25,-0.4 -0.2,-0.55 0.1,-0.35 0.3,0.2 4.55,-0.1 9.5,-0.6 9.4,-1.05 15.45,-1.55 32.4,-2.75 10.1,-0.75 16.7,-1.45 28.5,-3.05 3.05,-0.4 6.35,-0.9 7.4,-1 1,-0.15 1.85,-0.05 1.85,0.2 0,0.25 -0.85,0.8 -1.85,1.25 l -1.9,0.85 1.9,-0.3 c 1.4,-0.25 1.85,-0.15 1.85,0.4 0,0.4 -0.35,0.85 -0.75,1.05 -0.4,0.15 -0.75,0.5 -0.75,0.75 0,0.9 1.5,1.95 2.4,1.75 1.3,-0.4 3.6,0.65 3.6,1.6 0,0.5 0.55,1.6 1.25,2.5 0.7,0.9 1.25,2 1.25,2.45 0,0.45 0.25,0.65 0.5,0.5 0.95,-0.6 4,0.9 4.05,2 0.05,0.55 0.15,1.35 0.2,1.75 0.05,0.4 0.15,1.2 0.25,1.75 0.1,0.7 0.2,0.6 0.45,-0.5 0.4,-1.95 2.25,-2.15 2.45,-0.2 0.15,1.1 0.35,1.25 1.65,1.05 1.2,-0.2 1.55,0 1.8,0.85 0.15,0.55 0.55,1.05 0.95,1.05 0.35,0 0.85,0.35 1.1,0.75 0.25,0.45 1.45,0.9 3.05,1.1 1.5,0.15 2.75,0.6 2.9,0.95 0.15,0.4 0.7,0.7 1.25,0.7 0.55,0 1.1,0.4 1.25,1 0.15,0.55 0.45,1 0.65,1 0.2,0 0.5,0.45 0.65,1 0.15,0.55 0.6,1 1.05,1 0.45,0 0.8,0.25 0.8,0.5 0,0.3 0.25,0.5 0.5,0.5 0.3,0 0.5,-0.35 0.5,-0.75 0,-0.4 0.45,-0.75 1.05,-0.75 0.6,0 0.9,0.2 0.65,0.55 -0.15,0.3 0,0.75 0.35,1 1.1,0.7 -12.85,0.4 -29.05,-0.6 z"
       id="path162" />
    <path
       d="m 486.75,365.05 c -0.3,-0.55 0.45,-1.15 0.95,-0.7 0.45,0.45 0.35,1.15 -0.15,1.15 -0.3,0 -0.6,-0.2 -0.8,-0.45 z"
       id="path163" />
    <path
       d="m 756,364.55 c 0,-0.5 -0.15,-1.95 -0.3,-3.25 -0.3,-1.9 -0.2,-2.3 0.45,-2.3 0.45,0 0.9,-0.4 1,-0.85 0.1,-0.5 0.1,-0.1 0,0.85 -0.1,0.95 -0.2,2.8 -0.25,4.15 -0.05,1.3 -0.25,2.35 -0.5,2.35 -0.2,0 -0.4,-0.4 -0.4,-0.95 z"
       id="path164" />
    <path
       d="m 476.85,364.2 c -0.4,-0.4 0.05,-1.2 0.7,-1.2 0.25,0 0.45,0.35 0.45,0.75 0,0.75 -0.6,1 -1.15,0.45 z"
       id="path165" />
    <path
       d="m 471.85,363.65 c -0.6,-0.55 -0.4,-1.15 0.4,-1.15 0.4,0 0.75,0.35 0.75,0.75 0,0.8 -0.6,1 -1.15,0.4 z"
       id="path166" />
    <path
       d="m 466.85,363.15 c -0.6,-0.55 -0.4,-1.15 0.4,-1.15 0.4,0 0.75,0.35 0.75,0.75 0,0.8 -0.6,1 -1.15,0.4 z"
       id="path167" />
    <path
       d="m 462.75,362.45 c -0.2,-0.3 -0.25,-0.65 -0.1,-0.8 0.35,-0.35 1.35,0.3 1.35,0.9 0,0.6 -0.85,0.6 -1.25,-0.1 z"
       id="path168" />
    <path
       d="m 679.75,358.5 c -0.15,-0.3 -0.05,-0.5 0.25,-0.5 0.3,0 1.1,-0.5 1.8,-1.15 1.25,-1.15 4.2,-3.05 4.2,-2.7 0,0.55 -6,4.75 -6.25,4.35 z"
       id="path169" />
    <path
       d="m 429.25,356.45 c -0.2,-0.3 -0.25,-0.65 -0.1,-0.8 0.35,-0.35 1.35,0.3 1.35,0.9 0,0.6 -0.85,0.6 -1.25,-0.1 z"
       id="path170" />
    <path
       d="m 426.25,355.6 c -0.6,-0.6 -0.2,-1 0.75,-0.75 0.55,0.15 1,0.45 1,0.6 0,0.45 -1.35,0.5 -1.75,0.15 z"
       id="path171" />
    <path
       d="m 688.75,351.75 c 0.85,-0.65 1.85,-1.2 2.25,-1.25 0.4,0 -0.1,0.55 -1.1,1.25 -2.35,1.6 -3.1,1.6 -1.15,0 z"
       id="path172" />
    <path
       d="m 756.5,349.55 c -0.35,-0.75 -0.35,-1.05 0,-1.05 0.6,0 1.25,1.4 0.85,1.8 -0.15,0.15 -0.5,-0.2 -0.85,-0.75 z"
       id="path173" />
    <path
       d="m 693,348.8 c 0,-0.1 1.15,-1 2.5,-2 1.4,-1 2.5,-1.6 2.5,-1.35 0,0.25 -1,1.15 -2.3,2 -2.2,1.5 -2.7,1.75 -2.7,1.35 z"
       id="path174" />
    <path
       d="m 756.25,347.05 -1,-0.4 1,-0.25 c 0.8,-0.25 0.85,-0.3 0.15,-0.35 -0.8,-0.05 -0.9,-0.65 -0.9,-5.3 0,-4.35 0.15,-5.25 0.75,-5.25 0.6,0 0.75,0.8 0.8,4.15 0,2.25 0.1,4.95 0.15,6 0.1,1 0.15,1.85 0.1,1.8 -0.05,0 -0.5,-0.2 -1.05,-0.4 z"
       id="path175" />
    <path
       d="m 698.8,344.6 c 2.25,-2 7.25,-5.5 6.45,-4.6 -1.1,1.3 -6,5 -6.6,5 -0.2,0 -0.15,-0.2 0.15,-0.4 z"
       id="path176" />
    <path
       d="m 712,334.7 c 0.85,-0.75 1.65,-1.2 1.8,-1.05 0.25,0.25 -2.45,2.35 -3.05,2.35 -0.2,0 0.4,-0.6 1.25,-1.3 z"
       id="path177" />
    <path
       d="m 256.75,332 c 0.2,-2.05 0.6,-3.95 0.85,-4.25 0.35,-0.35 0.4,0.2 0.15,1.75 -0.2,1.25 -0.45,3.05 -0.6,4 -0.4,3.4 -0.75,2.2 -0.4,-1.5 z"
       id="path178" />
    <path
       d="m 755,333.8 c 0,-0.65 0.35,-1.3 0.75,-1.5 0.55,-0.2 0.75,0.1 0.75,1.2 0,1 -0.25,1.5 -0.75,1.5 -0.45,0 -0.75,-0.45 -0.75,-1.2 z"
       id="path179" />
    <path
       d="m 715.9,331.75 c 0.85,-0.7 1.65,-1.25 1.85,-1.25 0.25,0 -0.25,0.55 -1.05,1.25 -0.8,0.7 -1.65,1.25 -1.85,1.25 -0.25,0 0.25,-0.55 1.05,-1.25 z"
       id="path180" />
    <path
       d="m 755.3,330.45 c -0.95,-1.15 -0.8,-4.1 0.25,-4.75 0.3,-0.15 0.45,0 0.4,0.35 -0.1,0.4 0.05,1.65 0.25,2.85 0.5,2.6 0.3,2.9 -0.9,1.55 z"
       id="path181" />
    <path
       d="m 721,328.3 c 0,-0.1 0.95,-0.95 2.05,-1.85 1.45,-1.15 1.95,-1.35 1.55,-0.65 -0.45,0.85 -3.6,3.05 -3.6,2.5 z"
       id="path182" />
    <path
       d="m 257.6,324.5 c 0,-2.25 0.6,-4.9 0.95,-4.25 0.15,0.3 0,1.75 -0.35,3.25 -0.5,2.25 -0.6,2.45 -0.6,1 z"
       id="path183" />
    <path
       d="m 725.65,324.7 c 0.15,-0.25 1.6,-1.35 3.2,-2.45 1.6,-1.1 3.3,-2.45 3.8,-3 0.7,-0.85 0.8,-0.85 0.55,-0.15 -0.15,0.5 -1.7,1.85 -3.4,3.05 -3.95,2.75 -4.5,3.1 -4.15,2.55 z"
       id="path184" />
    <path
       d="m 734,318.65 c 0,-0.2 0.95,-1.15 2.1,-2.1 1.1,-0.95 1.85,-1.4 1.6,-0.95 -0.6,1 -3.7,3.6 -3.7,3.05 z"
       id="path185" />
    <path
       d="m 258.7,315.75 c 0.15,-1.1 0.3,-2.8 0.35,-3.75 0,-1.5 0.05,-1.6 0.45,-0.65 0.25,0.6 0.25,1.75 0,2.6 -0.2,0.8 -0.3,1.6 -0.15,1.7 0.15,0.15 0,0.7 -0.35,1.2 -0.45,0.75 -0.5,0.55 -0.3,-1.1 z"
       id="path186" />
    <path
       d="m 753.55,313.9 c -0.05,-1.05 -0.3,-1.9 -0.55,-1.9 -0.3,0 -0.25,-0.3 0.1,-0.7 0.55,-0.6 0.7,-0.45 1,0.85 0.15,0.85 0.1,2 -0.1,2.55 -0.35,0.85 -0.45,0.7 -0.45,-0.8 z"
       id="path187" />
    <path
       d="m 739.75,313.75 c 0.85,-0.65 1.7,-1.2 1.95,-1.25 0.3,0 -0.25,0.55 -1.2,1.25 -2.2,1.6 -2.7,1.6 -0.75,0 z"
       id="path188" />
    <path
       d="m 744.7,310.25 c 1.35,-1.35 5.3,-4.25 5.25,-3.85 0,0.4 -5.2,4.6 -5.7,4.6 -0.2,0 0,-0.35 0.45,-0.75 z"
       id="path189" />
    <path
       d="m 751.3,306.2 c -0.45,-1.15 -0.4,-1.2 0.65,-1.2 0.5,0 1.05,0.45 1.2,1 0.3,1.25 -1.4,1.45 -1.85,0.2 z"
       id="path190" />
    <path
       d="m 601.75,283.9 c -0.1,-0.35 -0.55,-3.55 -1,-7.15 -2.1,-17.4 -5.4,-27.9 -10.45,-33.15 -2.45,-2.6 -7.7,-5.5 -11.3,-6.35 -0.4,-0.1 -2.55,-0.6 -4.75,-1.15 -6.05,-1.45 -12.3,-2.5 -19.5,-3.15 -3.55,-0.3 -6.85,-0.8 -7.25,-1 -0.45,-0.3 0.1,-0.35 1.5,-0.25 1.25,0.15 4.05,0.4 6.25,0.55 15.1,1.15 29.75,4.9 32.8,8.45 0.6,0.7 1.45,1.3 1.8,1.3 2.1,0 7.15,7.95 8.85,14 1.45,5.25 3.2,14.25 3.75,19.75 0.35,3.05 0.7,6.25 0.8,7.15 0.15,1.15 0,1.6 -0.55,1.6 -0.4,0 -0.85,-0.3 -0.95,-0.6 z"
       id="path191" />
    <path
       d="m 604.5,282.8 c 0,-6.35 3.05,-24.3 4.95,-29.05 2.4,-6 6.8,-11.5 11.1,-13.95 3.2,-1.85 11.85,-4.65 16.95,-5.6 6.95,-1.25 15.5,-2.2 19,-2.15 4.15,0.05 2.2,0.85 -2.35,0.9 -6.75,0.1 -18.5,2.15 -26.1,4.55 -14.55,4.6 -18.9,12.2 -22.05,38.25 -1.05,8.4 -1.5,10.65 -1.5,7.05 z"
       id="path192" />
    <path
       d="m 547.2,230.45 c -0.35,-0.55 0.6,-1.4 1.55,-1.45 0.3,0 2.3,-0.2 4.5,-0.5 2.2,-0.25 5.25,-0.6 6.75,-0.75 1.5,-0.2 5,-0.75 7.75,-1.3 17.9,-3.6 25.05,-8.55 28.6,-19.8 0.45,-1.45 1.05,-2.65 1.25,-2.65 0.25,0 0.3,-0.25 0.15,-0.5 -0.2,-0.3 0.1,-2.7 0.7,-5.4 0.55,-2.65 1.15,-5.9 1.3,-7.25 0.15,-1.3 0.45,-2.35 0.65,-2.35 0.2,0 0.4,-1.85 0.45,-4.1 0.05,-2.3 0.3,-4.2 0.5,-4.25 0.25,-0.1 0.35,-1.05 0.25,-2.15 -0.2,-2 0.6,-3.75 1.45,-3.2 0.25,0.15 0.35,1.35 0.2,2.6 -1.75,15.65 -2.3,19.25 -3.8,25.6 -1.55,6.45 -4.85,12.85 -8.2,15.9 -4.2,3.85 -13.55,7.9 -16.7,7.3 -1.2,-0.25 -1.55,-0.15 -1.55,0.45 0,1.05 -2.95,1.7 -3.6,0.8 -0.35,-0.5 -0.55,-0.55 -0.7,-0.15 -0.15,0.35 -0.7,0.45 -1.3,0.3 -0.65,-0.15 -1.2,0.05 -1.5,0.6 -0.55,0.95 -1.7,1.05 -2.1,0.2 -0.15,-0.45 -0.4,-0.4 -0.8,0.25 -0.6,0.9 -2,1.2 -2,0.35 0,-0.25 -0.35,-0.5 -0.75,-0.5 -0.4,0 -0.75,0.3 -0.75,0.7 0,0.75 -6.65,1.5 -6.9,0.75 -0.25,-0.65 -1.05,-0.55 -1.9,0.3 -0.9,0.9 -3,1 -3.5,0.2 z"
       id="path193" />
    <path
       d="m 655.65,230.65 c -0.65,-0.1 -1.15,-0.4 -1.15,-0.65 0,-0.25 -1.2,-0.3 -2.65,-0.15 -2.05,0.2 -2.85,0.1 -3.45,-0.55 -0.45,-0.45 -0.9,-0.6 -1,-0.35 -0.2,0.65 -8.55,-1.1 -8.75,-1.8 -0.15,-0.4 -0.75,-0.5 -1.6,-0.35 -0.9,0.2 -1.65,0.05 -2.1,-0.45 -0.35,-0.35 -1.05,-0.6 -1.45,-0.5 -1,0.25 -7.8,-2.4 -11.3,-4.4 -3.3,-1.85 -6.85,-5 -8.65,-7.65 -2.9,-4.25 -5.5,-12.45 -7.5,-23.75 -1.25,-6.8 -1.9,-15.7 -1.1,-14.55 0.3,0.4 0.55,1.7 0.55,2.85 0,6.15 3.25,21.65 5.85,28.35 2.75,7 5.15,9.8 11.15,13.15 6.15,3.4 15.55,6.15 27.75,8.15 7.85,1.25 8.25,1.35 8.25,2.3 0,0.7 -0.65,0.75 -2.85,0.35 z"
       id="path194" />
  </g>
</svg>
